<svg width="272" height="196" viewBox="0 0 272 196" fill="none" xmlns="http://www.w3.org/2000/svg">
<g clip-path="url(#clip0_1_255)">
<path d="M135.625 195.74C210.469 195.74 271.142 186.594 271.142 175.311C271.142 164.029 210.469 154.882 135.625 154.882C60.7808 154.882 0.107666 164.029 0.107666 175.311C0.107666 186.594 60.7808 195.74 135.625 195.74Z" fill="#A9D5F6"/>
<path d="M82.6222 38.1593C82.6222 38.1593 96.5933 16.8461 84.6008 15.1468C72.6083 13.4475 82.6222 38.1593 82.6222 38.1593Z" fill="#F6921E"/>
<path d="M82.4132 47.3729C82.0637 47.0047 81.8626 44.1885 81.8606 44.1601C81.7579 42.6531 81.7316 40.3951 82.1837 38.157C80.6177 29.9366 83.4598 22.2573 83.4887 22.1805C83.5677 21.9709 83.8136 21.8607 84.0384 21.9346C84.263 22.0083 84.381 22.2381 84.3022 22.4478C84.2738 22.5229 81.4909 30.0553 83.0465 38.0877C83.0559 38.1366 83.0556 38.1867 83.0455 38.2355C82.2327 42.1666 82.9458 46.4613 83.109 46.9043C83.21 47.0666 83.178 47.278 83.0217 47.4072C82.9398 47.4751 82.8376 47.5084 82.736 47.5084C82.617 47.5084 82.4984 47.4627 82.4132 47.3729Z" fill="#244551"/>
<path d="M70.0411 25.6598C70.0411 25.6598 81.288 2.98546 69.1656 2.58776C57.0432 2.19006 70.0411 25.6598 70.0411 25.6598Z" fill="#1B75BB"/>
<path d="M93.9142 57.1276C94.0457 57.1276 94.1755 57.0716 94.2602 56.9656C94.4025 56.7873 94.363 56.5351 94.1722 56.4023C88.4898 52.4495 74.8042 41.5313 70.459 25.5608C70.4575 25.5548 70.4557 25.5489 70.4538 25.543C67.9164 17.7314 69.7517 9.95036 69.7705 9.87266C69.823 9.65589 69.6774 9.44034 69.4453 9.39121C69.2131 9.34189 68.9823 9.47782 68.9295 9.69461C68.9101 9.77426 67.0244 17.7492 69.6258 25.7679C74.0414 41.9834 87.9018 53.0444 93.6568 57.0478C93.7343 57.1017 93.8245 57.1276 93.9142 57.1276Z" fill="#244551"/>
<path d="M65.0318 27.2893C65.0318 27.2893 58.3828 7.91114 50.8823 13.9116C43.3819 19.912 65.0318 27.2893 65.0318 27.2893Z" fill="#F6921E"/>
<path d="M71.7753 31.1165C72.0014 31.1165 72.1913 30.9521 72.2052 30.7386C72.2197 30.5167 72.0388 30.3259 71.8011 30.3122C70.5663 30.2417 66.6739 27.8679 65.2783 26.9591C65.2693 26.9532 65.2602 26.9477 65.2506 26.9425C59.1288 23.5725 55.6502 17.9851 55.6158 17.9291C55.4974 17.7363 55.2341 17.6697 55.0273 17.7801C54.8207 17.8907 54.7493 18.1366 54.8678 18.3295C55.0129 18.5657 58.4906 24.1503 64.7986 27.6281C65.3938 28.0152 70.0638 31.0196 71.7486 31.1158C71.7574 31.1162 71.7664 31.1165 71.7753 31.1165Z" fill="#244551"/>
<path d="M74.6113 45.7121C74.6113 45.7121 58.8849 24.1793 52.0168 34.0979C45.1487 44.0166 74.6113 45.7121 74.6113 45.7121Z" fill="#1B75BB"/>
<path d="M86.2647 50.9826C86.4449 50.9826 86.6129 50.8764 86.6734 50.7081C86.7492 50.4973 86.6277 50.2692 86.402 50.1984C86.3207 50.173 78.2489 47.6298 74.8609 45.3839C74.817 45.3549 74.7677 45.3337 74.7155 45.3216C65.8619 43.2605 59.3778 37.5603 59.3134 37.5029C59.1409 37.3496 58.8679 37.3557 58.7039 37.5166C58.5395 37.6775 58.546 37.9321 58.7183 38.0855C58.7842 38.1442 65.3868 43.9549 74.4285 46.0843C77.9538 48.3867 85.7934 50.8569 86.1276 50.9616C86.1731 50.9758 86.2192 50.9826 86.2647 50.9826Z" fill="#244551"/>
<path d="M218.186 108.795V139.064C219.493 139.517 221.251 139.978 223.364 140.135C226.972 140.401 229.882 139.65 231.594 139.064C233.345 138.139 235.666 136.696 237.999 134.519C246.37 126.704 248.674 115.372 244.914 105.62C236.119 102.663 226.122 103.722 218.186 108.795Z" fill="#1B75BB"/>
<path d="M244.979 117.766C243.064 118.149 240.998 118.276 239.096 118.276C235.8 118.276 232.996 117.893 232.311 117.793L224.473 125.109C226.637 125.6 235.129 127.344 242.112 126.257C242.28 126.232 242.439 126.337 242.467 126.494C242.495 126.651 242.382 126.799 242.213 126.825C240.576 127.081 238.857 127.182 237.156 127.182C230.986 127.182 225.043 125.841 223.964 125.584L218.403 130.775C218.344 130.832 218.265 130.86 218.185 130.86C218.106 130.86 218.027 130.832 217.968 130.775C217.847 130.663 217.847 130.481 217.968 130.368L219.885 128.577C219.601 127.392 217.862 119.747 218.549 112.267C218.564 112.109 218.713 111.992 218.882 112.006C219.052 112.019 219.178 112.159 219.164 112.317C218.534 119.175 219.969 126.182 220.404 128.094L227.677 121.303C227.425 120.268 226.046 114.315 226.306 108.613C226.314 108.454 226.46 108.332 226.627 108.338C226.798 108.344 226.929 108.479 226.922 108.637C226.687 113.801 227.814 119.179 228.194 120.82L231.982 117.285L235.889 113.638C235.688 112.724 234.735 108.109 235.181 105.084C235.204 104.927 235.359 104.817 235.529 104.839C235.698 104.861 235.815 105.006 235.792 105.163C235.408 107.767 236.126 111.732 236.414 113.147L242.645 107.331C242.763 107.221 242.952 107.218 243.073 107.324C243.201 107.435 243.204 107.623 243.081 107.738L236.448 113.93C236.447 113.931 236.446 113.933 236.444 113.934L232.853 117.286C234.655 117.526 240.214 118.129 244.849 117.203C245.017 117.17 245.18 117.269 245.215 117.424C245.251 117.58 245.145 117.732 244.979 117.766Z" fill="#244551"/>
<path d="M218.186 89.5036V118.643C223.65 115.278 229.447 109.499 233.654 99.5869L229.299 98.7244L234.684 96.985C236.518 92.0211 237.969 86.1217 238.839 79.1123C238.839 79.1123 232.774 80.8431 225.562 84.8035L224.443 90.676L223.244 86.1351C221.571 87.1387 219.866 88.2592 218.186 89.5036Z" fill="#F6921E"/>
<path d="M233.969 134.837H233.966C233.827 134.839 233.688 134.839 233.549 134.839C226.612 134.839 221.027 133.371 218.287 132.484C218.125 132.431 217.95 132.511 217.894 132.661C217.839 132.811 217.924 132.975 218.085 133.027C220.862 133.927 226.521 135.415 233.55 135.415C233.69 135.415 233.831 135.414 233.972 135.413C234.142 135.412 234.279 135.282 234.277 135.123C234.276 134.965 234.138 134.837 233.969 134.837Z" fill="#244551"/>
<path d="M217.999 104.262C218.055 104.302 218.12 104.321 218.185 104.321C218.278 104.321 218.37 104.282 218.431 104.207L219.337 103.093H230.026C230.196 103.093 230.334 102.964 230.334 102.805C230.334 102.646 230.196 102.518 230.026 102.518H219.805L224.689 96.5149H232.382C232.553 96.5149 232.691 96.3861 232.691 96.2271C232.691 96.0681 232.553 95.9393 232.382 95.9393H225.157L227.955 92.4998L234.593 92.3311C234.763 92.3268 234.898 92.1944 234.893 92.0355C234.888 91.8766 234.743 91.7523 234.576 91.7557L228.434 91.9117L237.275 81.0442C237.378 80.9176 237.352 80.7371 237.216 80.6409C237.081 80.5449 236.887 80.5693 236.784 80.696L231.815 86.8034V83.8611C231.815 83.7021 231.677 83.5733 231.507 83.5733C231.337 83.5733 231.199 83.7021 231.199 83.8611V87.5613L222.16 98.6712L221.547 90.2558C221.535 90.0972 221.388 89.9766 221.218 89.9882C221.048 89.9989 220.92 90.1363 220.932 90.2949L221.593 99.3684L217.94 103.859C217.837 103.985 217.863 104.166 217.999 104.262Z" fill="#244551"/>
<path d="M218.212 108.643C218.042 108.629 217.893 108.746 217.878 108.905C217.864 109.063 217.989 109.203 218.159 109.216L224.292 109.715C224.301 109.716 224.31 109.716 224.319 109.716C224.477 109.716 224.612 109.603 224.626 109.454C224.641 109.295 224.515 109.156 224.346 109.142L218.212 108.643Z" fill="#00917C"/>
<path d="M41.9259 100.884V135.507C40.7034 136.164 37.7512 137.545 33.7549 137.423C30.3315 137.318 27.804 136.162 26.5884 135.507C24.5854 134.45 21.9302 132.799 19.2624 130.309C9.68628 121.37 7.05068 108.407 11.352 97.2518C21.4125 93.8696 32.8471 95.0811 41.9259 100.884Z" fill="#1B75BB"/>
<path d="M11.2779 111.145C13.468 111.583 15.8308 111.729 18.0068 111.729C21.7768 111.729 24.9849 111.291 25.7678 111.176L34.7338 119.545C32.2581 120.107 22.5445 122.102 14.5565 120.859C14.3649 120.829 14.1827 120.95 14.151 121.13C14.1192 121.309 14.2486 121.479 14.4413 121.509C16.314 121.8 18.2807 121.917 20.2263 121.917C27.2843 121.917 34.0814 120.383 35.3157 120.088L41.6766 126.027C41.7448 126.091 41.8353 126.123 41.9258 126.123C42.0164 126.123 42.1069 126.091 42.1751 126.027C42.3126 125.898 42.3126 125.69 42.1751 125.561L39.9815 123.512C40.3071 122.157 42.2962 113.412 41.5097 104.856C41.4933 104.675 41.3228 104.541 41.1288 104.557C40.9349 104.572 40.7903 104.732 40.8067 104.913C41.5273 112.758 39.8863 120.772 39.3878 122.959L31.0684 115.192C31.3576 114.008 32.934 107.198 32.6366 100.676C32.6284 100.494 32.4614 100.354 32.2698 100.361C32.0747 100.369 31.9242 100.522 31.9324 100.703C32.2016 106.611 30.9121 112.762 30.4771 114.64L26.144 110.596L21.6757 106.424C21.905 105.378 22.9959 100.1 22.4857 96.6396C22.4586 96.4597 22.2811 96.3334 22.0872 96.3587C21.8944 96.3839 21.7604 96.5496 21.7862 96.7296C22.2259 99.708 21.4042 104.244 21.075 105.862L13.9472 99.2094C13.813 99.0841 13.5966 99.0805 13.4577 99.2013C13.3117 99.3283 13.3077 99.543 13.4488 99.6747L21.0362 106.758C21.0374 106.759 21.0386 106.761 21.0409 106.762L25.1483 110.597C23.0864 110.871 16.7278 111.561 11.426 110.501C11.2344 110.464 11.0475 110.577 11.0075 110.755C10.9664 110.933 11.0875 111.107 11.2779 111.145Z" fill="#244551"/>
<path d="M41.9259 78.8172V112.148C35.6755 108.3 29.0442 101.69 24.2326 90.3512L29.2135 89.3646L23.0536 87.3749C20.9564 81.6968 19.2965 74.9487 18.3008 66.9309C18.3008 66.9309 25.2389 68.9107 33.4878 73.4409L34.768 80.1582L36.1398 74.9641C38.0537 76.112 40.0039 77.3938 41.9259 78.8172Z" fill="#F6921E"/>
<path d="M23.8716 130.673H23.8749C24.0347 130.675 24.1933 130.675 24.3519 130.675C32.2873 130.675 38.6757 128.996 41.8103 127.981C41.9949 127.921 42.1954 128.012 42.2591 128.184C42.3229 128.356 42.2256 128.543 42.0415 128.603C38.8643 129.632 32.3911 131.334 24.3515 131.334C24.1913 131.334 24.0299 131.333 23.8685 131.332C23.6737 131.33 23.5173 131.181 23.5191 130.999C23.5208 130.819 23.6784 130.673 23.8716 130.673Z" fill="#244551"/>
<path d="M42.1391 95.6989C42.0754 95.7442 42.0004 95.766 41.926 95.766C41.8196 95.766 41.7143 95.7212 41.645 95.6359L40.6085 94.3619H28.3818C28.1869 94.3619 28.0291 94.2145 28.0291 94.0326C28.0291 93.8508 28.1869 93.7034 28.3818 93.7034H40.0728L34.4868 86.8372H25.6864C25.4916 86.8372 25.3337 86.6898 25.3337 86.5079C25.3337 86.3261 25.4916 86.1787 25.6864 86.1787H33.9512L30.7504 82.2443L23.1577 82.0514C22.963 82.0465 22.8095 81.8951 22.8147 81.7133C22.8201 81.5316 22.9866 81.3893 23.1769 81.3932L30.2032 81.5717L20.09 69.1407C19.9721 68.9959 20.0024 68.7893 20.1575 68.6794C20.3123 68.5695 20.5338 68.5974 20.6516 68.7424L26.335 75.7284V72.3629C26.335 72.181 26.4928 72.0336 26.6877 72.0336C26.8825 72.0336 27.0403 72.181 27.0403 72.3629V76.5954L37.379 89.3037L38.0809 79.6775C38.0941 79.4962 38.263 79.3581 38.4568 79.3714C38.651 79.3837 38.7978 79.5409 38.7846 79.7223L38.0279 90.1012L42.2066 95.2377C42.3245 95.3824 42.2942 95.589 42.1391 95.6989Z" fill="#244551"/>
<path d="M41.8951 100.71C42.0903 100.694 42.2601 100.828 42.277 101.009C42.294 101.191 42.1504 101.35 41.9564 101.366L34.9407 101.937C34.9302 101.937 34.9199 101.938 34.9096 101.938C34.7288 101.938 34.5747 101.809 34.5587 101.637C34.5418 101.456 34.6854 101.296 34.8794 101.281L41.8951 100.71Z" fill="#244551"/>
<path d="M246.986 44.7128C247.152 43.2062 247.24 41.6759 247.24 40.1243C247.24 39.3057 247.213 38.4933 247.167 37.6866L239.719 35.2336C239.261 32.037 238.36 28.9869 237.082 26.1492L242.02 19.9629C240.878 17.9167 239.569 15.9801 238.109 14.1739L230.66 16.6481C228.489 14.3902 226.008 12.443 223.286 10.8781L223.71 2.91128C221.631 1.94795 219.458 1.15973 217.208 0.565254L212.609 7.0268C210.816 6.71963 208.975 6.55725 207.096 6.55725C205.816 6.55725 204.553 6.6342 203.311 6.77885L199.052 0.078125C196.771 0.550531 194.56 1.22015 192.437 2.06835L192.446 10.047C189.642 11.4654 187.064 13.2774 184.783 15.4135L177.476 12.5431C175.923 14.2704 174.513 16.1332 173.268 18.1133L177.879 24.5581C176.452 27.3291 175.393 30.3274 174.77 33.4868L167.206 35.5359C167.041 37.0424 166.953 38.5728 166.953 40.1243C166.953 40.943 166.98 41.7553 167.026 42.562L174.474 45.0151C174.932 48.2116 175.833 51.2618 177.111 54.0994L172.172 60.2857C173.315 62.3319 174.624 64.2686 176.084 66.0748L183.533 63.6005C185.704 65.8585 188.185 67.8057 190.906 69.3705L190.483 77.3374C192.561 78.3007 194.735 79.0889 196.985 79.6834L201.584 73.2218C203.377 73.529 205.218 73.6913 207.096 73.6913C208.377 73.6913 209.64 73.6145 210.882 73.4698L215.14 80.1705C217.422 79.6981 219.633 79.0285 221.756 78.1803L221.746 70.2016C224.551 68.7833 227.129 66.9712 229.41 64.8352L236.717 67.7055C238.27 65.9782 239.68 64.1155 240.925 62.1353L236.314 55.6906C237.741 52.9195 238.8 49.9212 239.423 46.7617L246.986 44.7128ZM207.096 56.1534C198.401 56.1534 191.351 48.9769 191.351 40.1243C191.351 31.2717 198.401 24.0953 207.096 24.0953C215.792 24.0953 222.841 31.2717 222.841 40.1243C222.841 48.9769 215.792 56.1534 207.096 56.1534Z" fill="#1B75BB"/>
<path d="M143.451 49.212C144.036 49.403 144.636 49.5642 145.252 49.6911C145.577 49.7581 145.902 49.8138 146.226 49.8607L147.812 47.012C149.119 47.0859 150.404 46.9668 151.636 46.6757L153.685 49.2039C154.592 48.9037 155.468 48.526 156.305 48.076L155.936 44.8236C157.01 44.1196 157.987 43.263 158.833 42.2767L161.96 43.1021C162.514 42.3298 163.005 41.5045 163.426 40.6317L161.24 38.2198C161.509 37.5109 161.725 36.7703 161.879 36.0011C161.984 35.4768 162.058 34.9534 162.103 34.4329L165.113 33.2377C165.113 32.2648 165.029 31.3047 164.867 30.366L161.698 29.717C161.366 28.4527 160.859 27.2489 160.198 26.14L161.939 23.3829C161.381 22.6058 160.757 21.8761 160.073 21.204L157.136 22.5648C156.153 21.7536 155.05 21.0746 153.847 20.5612L153.655 17.2965C153.071 17.1055 152.47 16.9442 151.854 16.8173C151.529 16.7503 151.205 16.6946 150.881 16.6477L149.294 19.4964C147.988 19.4225 146.703 19.5416 145.471 19.8327L143.421 17.3045C142.515 17.6047 141.638 17.9825 140.801 18.4325L141.171 21.6848C140.096 22.3889 139.119 23.2454 138.274 24.2318L135.146 23.4063C134.593 24.1786 134.101 25.004 133.68 25.8767L135.867 28.2887C135.598 28.9976 135.382 29.7381 135.227 30.5073C135.122 31.0316 135.049 31.555 135.004 32.0756L131.994 33.2708C131.994 34.2436 132.078 35.2038 132.24 36.1424L135.408 36.7914C135.741 38.0557 136.248 39.2595 136.908 40.3684L135.168 43.1256C135.726 43.9027 136.349 44.6324 137.033 45.3044L139.971 43.9437C140.954 44.7549 142.057 45.4338 143.26 45.9473L143.451 49.212ZM142.19 31.9425C142.905 28.382 146.334 26.0829 149.848 26.8073C153.362 27.5318 155.632 31.0054 154.917 34.5659C154.202 38.1264 150.773 40.4255 147.259 39.7011C143.744 38.9767 141.475 35.503 142.19 31.9425Z" fill="#F6921E"/>
<path d="M217.493 43.9646H41.9215C41.5359 43.9646 41.2234 44.2817 41.2234 44.6728V151.641C41.2234 152.032 41.5359 152.349 41.9215 152.349H217.493C217.879 152.349 218.191 152.032 218.191 151.641V44.673C218.191 44.2818 217.879 43.9646 217.493 43.9646Z" fill="#244551"/>
<path d="M214.61 47.7207H44.8052V147.174H214.61V47.7207Z" fill="white"/>
<path opacity="0.53" d="M214.61 47.7207H44.8052V52.4321H214.61V47.7207Z" fill="white"/>
<path opacity="0.53" d="M205.429 60.4099H200.187C198.645 60.4099 197.395 61.6782 197.395 63.2426V68.5611C197.395 70.1255 198.645 71.3938 200.187 71.3938H205.429C206.972 71.3938 208.222 70.1255 208.222 68.5611V63.2426C208.222 61.6782 206.972 60.4099 205.429 60.4099Z" fill="white"/>
<path opacity="0.53" d="M187.461 60.4099H182.219C180.677 60.4099 179.427 61.6782 179.427 63.2426V68.5611C179.427 70.1255 180.677 71.3938 182.219 71.3938H187.461C189.003 71.3938 190.254 70.1255 190.254 68.5611V63.2426C190.254 61.6782 189.004 60.4099 187.461 60.4099Z" fill="white"/>
<path opacity="0.53" d="M205.429 76.8564H200.187C198.645 76.8564 197.395 78.1247 197.395 79.6891V85.0076C197.395 86.5721 198.645 87.8403 200.187 87.8403H205.429C206.972 87.8403 208.222 86.5721 208.222 85.0076V79.6891C208.222 78.1247 206.972 76.8564 205.429 76.8564Z" fill="white"/>
<path opacity="0.53" d="M187.461 76.8564H182.219C180.677 76.8564 179.427 78.1247 179.427 79.6891V85.0076C179.427 86.5721 180.677 87.8403 182.219 87.8403H187.461C189.003 87.8403 190.254 86.5721 190.254 85.0076V79.6891C190.254 78.1247 189.004 76.8564 187.461 76.8564Z" fill="white"/>
<path opacity="0.53" d="M205.429 93.303H200.187C198.645 93.303 197.395 94.5712 197.395 96.1357V101.454C197.395 103.019 198.645 104.287 200.187 104.287H205.429C206.972 104.287 208.222 103.019 208.222 101.454V96.1357C208.222 94.5712 206.972 93.303 205.429 93.303Z" fill="white"/>
<path opacity="0.53" d="M187.461 93.303H182.219C180.677 93.303 179.427 94.5712 179.427 96.1357V101.454C179.427 103.019 180.677 104.287 182.219 104.287H187.461C189.003 104.287 190.254 103.019 190.254 101.454V96.1357C190.254 94.5712 189.004 93.303 187.461 93.303Z" fill="white"/>
<path opacity="0.53" d="M205.429 109.75H200.187C198.645 109.75 197.395 111.018 197.395 112.582V117.901C197.395 119.465 198.645 120.733 200.187 120.733H205.429C206.972 120.733 208.222 119.465 208.222 117.901V112.582C208.222 111.018 206.972 109.75 205.429 109.75Z" fill="white"/>
<path opacity="0.53" d="M187.461 109.75H182.219C180.677 109.75 179.427 111.018 179.427 112.582V117.901C179.427 119.465 180.677 120.733 182.219 120.733H187.461C189.003 120.733 190.254 119.465 190.254 117.901V112.582C190.254 111.018 189.004 109.75 187.461 109.75Z" fill="white"/>
<path opacity="0.53" d="M205.429 126.196H200.187C198.645 126.196 197.395 127.464 197.395 129.029V134.347C197.395 135.912 198.645 137.18 200.187 137.18H205.429C206.972 137.18 208.222 135.912 208.222 134.347V129.029C208.222 127.464 206.972 126.196 205.429 126.196Z" fill="white"/>
<path d="M145.599 152.349H113.816V168.319H145.599V152.349Z" fill="#2E576C"/>
<path d="M159.287 168.319H100.127C97.1725 168.319 94.7773 170.748 94.7773 173.746H164.637C164.637 170.748 162.242 168.319 159.287 168.319Z" fill="#172D36"/>
<path d="M176.323 71.1653V77.4987C176.323 77.9696 175.946 78.3513 175.482 78.3513H165.403C164.938 78.3513 164.562 77.9696 164.562 77.4987V71.1653C164.562 70.6946 164.938 70.3127 165.403 70.3127H175.482C175.946 70.3127 176.323 70.6946 176.323 71.1653Z" fill="#17699E"/>
<path d="M176.323 72.2537H164.562V73.8599H176.323V72.2537Z" fill="#26A9E0"/>
<path d="M171.891 73.2185H162.494C161.842 73.2185 161.312 73.7478 161.312 74.4007V80.0748C161.312 80.7276 161.842 81.2569 162.494 81.2569H171.891C172.544 81.2569 173.073 80.7276 173.073 80.0748V74.4007C173.073 73.7478 172.544 73.2185 171.891 73.2185Z" fill="#1B75BB"/>
<path d="M164.955 74.7464V75.8708C164.955 75.8899 164.954 75.9089 164.951 75.9273C164.924 76.1135 164.766 76.2566 164.575 76.2566H162.53C162.339 76.2566 162.18 76.1135 162.153 75.9273C162.151 75.9089 162.149 75.8899 162.149 75.8708V74.7464C162.149 74.7273 162.151 74.7083 162.153 74.6899C162.18 74.5036 162.339 74.3606 162.53 74.3606H164.575C164.766 74.3606 164.924 74.5036 164.951 74.6899C164.954 74.7083 164.955 74.7273 164.955 74.7464Z" fill="#F6921E"/>
<path d="M164.001 74.9898C164.001 74.7244 163.788 74.5093 163.527 74.5093C163.265 74.5093 163.052 74.7244 163.052 74.9898C163.052 75.1135 163.099 75.2259 163.175 75.3111C163.099 75.3962 163.052 75.5086 163.052 75.6323C163.052 75.8977 163.265 76.1128 163.527 76.1128C163.788 76.1128 164.001 75.8977 164.001 75.6323C164.001 75.5086 163.954 75.3962 163.878 75.3111C163.954 75.2259 164.001 75.1135 164.001 74.9898Z" fill="#F6921E"/>
<path d="M164.955 74.7462V74.9091H162.149V74.7462C162.149 74.7271 162.151 74.7081 162.153 74.6897H164.951C164.954 74.7081 164.955 74.7271 164.955 74.7462Z" fill="#F6921E"/>
<path d="M164.955 75.1987H162.149V75.4181H164.955V75.1987Z" fill="#F6921E"/>
<path d="M164.955 75.7078V75.8707C164.955 75.8898 164.954 75.9087 164.951 75.9272H162.153C162.151 75.9087 162.149 75.8898 162.149 75.8707V75.7078H164.955Z" fill="#F6921E"/>
<path d="M134.907 49.573H124.429C124.139 49.573 123.904 49.808 123.904 50.0979V63.3822C123.904 63.6721 124.139 63.9071 124.429 63.9071H134.907C135.196 63.9071 135.431 63.6721 135.431 63.3822V50.0979C135.431 49.808 135.196 49.573 134.907 49.573Z" fill="#26A9E0"/>
<path d="M128.26 50.324H125.044C124.827 50.324 124.652 50.4994 124.652 50.7157V54.2764C124.652 54.4928 124.827 54.6682 125.044 54.6682H128.26C128.476 54.6682 128.652 54.4928 128.652 54.2764V50.7157C128.652 50.4994 128.476 50.324 128.26 50.324Z" fill="white"/>
<path d="M127.33 52.0843C127.33 52.4547 127.026 52.7551 126.652 52.7551C126.277 52.7551 125.973 52.4547 125.973 52.0843C125.973 51.7139 126.277 51.4136 126.652 51.4136C127.026 51.4136 127.33 51.7139 127.33 52.0843Z" fill="#1B75BB"/>
<path d="M127.949 54.6682H125.354V54.1417C125.354 53.4336 125.935 52.8596 126.652 52.8596C127.368 52.8596 127.949 53.4336 127.949 54.1417V54.6682Z" fill="#1B75BB"/>
<path d="M134.16 52.1048H129.637C129.544 52.1048 129.469 52.0304 129.469 51.9387C129.469 51.847 129.544 51.7727 129.637 51.7727H134.16C134.252 51.7727 134.328 51.847 134.328 51.9387C134.328 52.0304 134.252 52.1048 134.16 52.1048Z" fill="#1B75BB"/>
<path d="M134.16 55.6219H124.82C124.727 55.6219 124.652 55.5475 124.652 55.4558C124.652 55.3641 124.727 55.2898 124.82 55.2898H134.16C134.252 55.2898 134.328 55.3641 134.328 55.4558C134.328 55.5475 134.252 55.6219 134.16 55.6219Z" fill="#1B75BB"/>
<path d="M134.16 52.6997H129.637C129.544 52.6997 129.469 52.6254 129.469 52.5337C129.469 52.442 129.544 52.3677 129.637 52.3677H134.16C134.252 52.3677 134.328 52.442 134.328 52.5337C134.328 52.6254 134.252 52.6997 134.16 52.6997Z" fill="#1B75BB"/>
<path d="M127.438 56.2171H124.82C124.727 56.2171 124.652 56.1427 124.652 56.051C124.652 55.9593 124.727 55.885 124.82 55.885H127.438C127.531 55.885 127.606 55.9593 127.606 56.051C127.606 56.1427 127.531 56.2171 127.438 56.2171Z" fill="#1B75BB"/>
<path d="M131.826 56.2171H128.119C128.026 56.2171 127.951 56.1427 127.951 56.051C127.951 55.9593 128.026 55.885 128.119 55.885H131.826C131.918 55.885 131.994 55.9593 131.994 56.051C131.994 56.1427 131.918 56.2171 131.826 56.2171Z" fill="#1B75BB"/>
<path d="M129.333 56.8123H124.82C124.727 56.8123 124.652 56.738 124.652 56.6463C124.652 56.5546 124.727 56.4802 124.82 56.4802H129.333C129.425 56.4802 129.501 56.5546 129.501 56.6463C129.501 56.738 129.425 56.8123 129.333 56.8123Z" fill="#1B75BB"/>
<path d="M130.981 53.295H129.637C129.544 53.295 129.469 53.2206 129.469 53.1289C129.469 53.0372 129.544 52.9629 129.637 52.9629H130.981C131.074 52.9629 131.149 53.0372 131.149 53.1289C131.149 53.2206 131.074 53.295 130.981 53.295Z" fill="#1B75BB"/>
<path d="M132.923 53.295H131.579C131.486 53.295 131.411 53.2206 131.411 53.1289C131.411 53.0372 131.486 52.9629 131.579 52.9629H132.923C133.016 52.9629 133.091 53.0372 133.091 53.1289C133.091 53.2206 133.016 53.295 132.923 53.295Z" fill="#1B75BB"/>
<path d="M133.948 59.1819C133.098 59.1819 132.406 59.8651 132.406 60.7051V62.2299H132.822V60.7051C132.822 60.0917 133.327 59.5925 133.948 59.5925C134.569 59.5925 135.074 60.0917 135.074 60.7051V62.2299H135.49V60.7051C135.49 59.8651 134.798 59.1819 133.948 59.1819Z" fill="white"/>
<path d="M135.729 61.45H132.112C131.963 61.45 131.843 61.5705 131.843 61.7192V64.253C131.843 64.4017 131.963 64.5223 132.112 64.5223H135.729C135.877 64.5223 135.998 64.4017 135.998 64.253V61.7192C135.998 61.5705 135.877 61.45 135.729 61.45Z" fill="white"/>
<path d="M134.357 62.7841C134.357 62.5155 134.108 62.3043 133.826 62.3629C133.66 62.3972 133.527 62.53 133.493 62.6937C133.453 62.8906 133.548 63.0691 133.703 63.157C133.741 63.1782 133.764 63.2172 133.764 63.2599V63.7387C133.764 63.8237 133.834 63.8927 133.92 63.8927C134.006 63.8927 134.076 63.8237 134.076 63.7387V63.26C134.076 63.2171 134.1 63.1781 134.137 63.1567C134.268 63.0825 134.357 62.9439 134.357 62.7841Z" fill="#1B75BB"/>
<path d="M130.827 57.3997H124.866C124.748 57.3997 124.652 57.4954 124.652 57.6135V59.5613C124.652 59.6795 124.748 59.7752 124.866 59.7752H130.827C130.946 59.7752 131.041 59.6795 131.041 59.5613V57.6135C131.041 57.4954 130.946 57.3997 130.827 57.3997Z" fill="#1B75BB"/>
<path d="M151.07 144.046L163.331 144.046C163.589 144.046 163.799 143.829 163.799 143.561V136.333C163.799 136.065 163.589 135.848 163.331 135.848H151.07C150.812 135.848 150.603 136.065 150.603 136.333V143.561C150.603 143.829 150.812 144.046 151.07 144.046Z" fill="#26A9E0"/>
<path d="M163.798 137.396H150.603V138.811H163.798V137.396Z" fill="#1B75BB"/>
<path d="M160.776 142.473H162.716C162.839 142.473 162.939 142.577 162.939 142.705C162.939 142.834 162.839 142.937 162.716 142.937H160.776C160.652 142.937 160.552 142.834 160.552 142.705C160.552 142.577 160.652 142.473 160.776 142.473Z" fill="#D2EDF7"/>
<path d="M157.792 142.473H159.732C159.856 142.473 159.956 142.577 159.956 142.705C159.956 142.834 159.856 142.937 159.732 142.937H157.792C157.669 142.937 157.569 142.834 157.569 142.705C157.569 142.577 157.669 142.473 157.792 142.473Z" fill="#D2EDF7"/>
<path d="M154.809 142.473H156.749C156.872 142.473 156.972 142.577 156.972 142.705C156.972 142.834 156.872 142.937 156.749 142.937H154.809C154.685 142.937 154.585 142.834 154.585 142.705C154.585 142.577 154.685 142.473 154.809 142.473Z" fill="#D2EDF7"/>
<path d="M151.825 142.473H153.765C153.888 142.473 153.988 142.577 153.988 142.705C153.988 142.834 153.888 142.937 153.765 142.937H151.825C151.702 142.937 151.602 142.834 151.602 142.705C151.602 142.577 151.702 142.473 151.825 142.473Z" fill="#D2EDF7"/>
<path d="M162.805 136.264C162.941 136.264 163.052 136.378 163.052 136.52V136.61C163.052 136.751 162.941 136.866 162.805 136.866C162.669 136.866 162.559 136.751 162.559 136.61V136.52C162.559 136.378 162.669 136.264 162.805 136.264Z" fill="#D2EDF7"/>
<path d="M162.274 136.565C162.274 136.731 162.145 136.866 161.985 136.866H160.958C160.798 136.866 160.668 136.731 160.668 136.565C160.668 136.398 160.798 136.264 160.958 136.264H161.985C162.145 136.264 162.274 136.398 162.274 136.565Z" fill="#D2EDF7"/>
<path d="M161.931 139.572H161.56C161.084 139.572 160.698 139.958 160.698 140.434V140.697C160.698 141.173 161.084 141.56 161.56 141.56H161.931C162.408 141.56 162.794 141.173 162.794 140.697V140.434C162.794 139.958 162.408 139.572 161.931 139.572Z" fill="#F6921E"/>
<path d="M176.048 105.092H164.814V113.606H176.048V105.092Z" fill="#26A9E0"/>
<path d="M164.814 113.606V111.455L167.755 108.754L170.553 110.478L174.069 107.06L176.07 108.96V113.606H164.814Z" fill="#25454F"/>
<path d="M170.515 107.713C171.055 107.713 171.494 107.278 171.494 106.74C171.494 106.203 171.055 105.767 170.515 105.767C169.974 105.767 169.535 106.203 169.535 106.74C169.535 107.278 169.974 107.713 170.515 107.713Z" fill="white"/>
<path d="M99.331 71.5L92.913 67.5671L86.4951 71.5C86.4951 71.5 99.3536 71.5177 99.331 71.5Z" fill="#26A9E0"/>
<path d="M99.331 71.5H86.4951V78.8698H99.331V71.5Z" fill="#25454F"/>
<path d="M98.0126 68.6814H87.8135V77.9964H98.0126V68.6814Z" fill="white"/>
<g opacity="0.4">
<path d="M96.8848 70.1389H88.9746V70.2834H96.8848V70.1389Z" fill="#26A9E0"/>
<path d="M96.8848 70.7693H88.9746V70.9138H96.8848V70.7693Z" fill="#26A9E0"/>
<path d="M96.8848 71.3997H88.9746V71.5441H96.8848V71.3997Z" fill="#26A9E0"/>
<path d="M96.8848 72.03H88.9746V72.1745H96.8848V72.03Z" fill="#26A9E0"/>
<path d="M96.8848 72.6602H88.9746V72.8046H96.8848V72.6602Z" fill="#26A9E0"/>
<path d="M96.8848 73.2905H88.9746V73.435H96.8848V73.2905Z" fill="#26A9E0"/>
<path d="M96.8848 73.9209H88.9746V74.0654H96.8848V73.9209Z" fill="#26A9E0"/>
<path d="M96.8848 74.5513H88.9746V74.6958H96.8848V74.5513Z" fill="#26A9E0"/>
<path d="M96.8848 75.1816H88.9746V75.3261H96.8848V75.1816Z" fill="#A9A8AD"/>
</g>
<path d="M86.4951 71.5L92.913 75.1848L86.4951 78.8697V71.5Z" fill="#26A9E0"/>
<path d="M99.331 71.5L92.9131 75.1848L99.331 78.8697V71.5Z" fill="#26A9E0"/>
<path d="M86.4951 78.8697L92.2773 74.8069H93.5337L99.331 78.8697H86.4951Z" fill="#25454F"/>
<path d="M157.199 83.3489C157.2 83.2621 157.2 83.2239 157.2 83.2151C157.2 83.2312 157.199 83.3489 157.199 83.3489Z" fill="#DCF0F5"/>
<path d="M157.199 83.3489C157.2 83.2621 157.2 83.2239 157.2 83.2151C157.2 83.2312 157.199 83.3489 157.199 83.3489Z" fill="#DCF0F5"/>
<path d="M103.005 82.7175C103.005 82.7175 103.006 82.5998 103.007 82.5837C103.006 82.5925 103.006 82.6307 103.005 82.7175Z" fill="#DCF0F5"/>
<path d="M103.005 82.7175C103.005 82.7175 103.006 82.5998 103.007 82.5837C103.006 82.5925 103.006 82.6307 103.005 82.7175Z" fill="#DCF0F5"/>
<path d="M130.233 68.9248C137.229 76.3273 142.717 80.1103 157.166 83.3768C157.158 84.0651 157.11 87.8782 156.89 105.454C156.596 128.9 133.051 139.984 129.396 141.685C125.911 140.084 102.466 128.269 102.76 104.823C102.98 87.2476 103.028 83.4344 103.037 82.7462C113.838 80.5684 123.867 75.3432 130.233 68.9248Z" fill="#244551"/>
<path d="M130.225 73.1631C136.316 78.6827 144.81 83.08 154.19 85.5524L153.941 105.417C153.827 114.507 149.907 122.669 142.29 129.678C137.285 134.283 132.058 137.105 129.408 138.369C129.296 138.313 129.173 138.249 129.052 138.186L130.17 73.2085C130.188 73.1932 130.207 73.1785 130.225 73.1631Z" fill="#26A9E0"/>
<path d="M130.171 73.2085L129.052 138.186C126.344 136.785 121.426 133.898 116.747 129.38C109.308 122.196 105.594 113.945 105.708 104.855L105.957 84.9901C115.37 82.7438 123.948 78.5625 130.171 73.2085Z" fill="#1B75BB"/>
<path d="M131.988 101.14H127.045C126.6 101.14 126.24 101.501 126.24 101.945V114.61C126.24 115.055 126.6 115.415 127.045 115.415H131.988C132.432 115.415 132.792 115.055 132.792 114.61V101.945C132.792 101.501 132.432 101.14 131.988 101.14Z" fill="#1B75BB"/>
<path d="M122.821 102.744V95.5078C122.821 91.4202 125.859 88.0951 129.595 88.0951C133.331 88.0951 136.37 91.4202 136.37 95.5078V102.744H139.706V95.5078C139.706 89.4065 135.171 84.4429 129.595 84.4429C124.019 84.4429 119.483 89.4065 119.483 95.5078V102.744H122.821Z" fill="white"/>
<path d="M142.84 97.9697H129.529V101.866C130.842 101.88 131.904 103.04 131.904 104.479C131.904 105.603 131.257 106.558 130.35 106.932L131.489 112.995C131.55 113.324 131.356 113.641 131.092 113.641H129.529V117.898H142.84C143.177 117.898 143.45 117.599 143.45 117.231V98.6367C143.45 98.2684 143.177 97.9697 142.84 97.9697Z" fill="white"/>
<path d="M129.508 113.641H127.93C127.667 113.641 127.473 113.324 127.535 112.995L128.668 106.933C127.615 106.502 126.912 105.287 127.161 103.934C127.349 102.914 128.121 102.088 129.057 101.902C129.217 101.87 129.374 101.864 129.529 101.866V97.9697H116.192C115.855 97.9697 115.583 98.2683 115.583 98.6365V117.231C115.583 117.599 115.855 117.898 116.192 117.898H129.529V113.641H129.508Z" fill="white"/>
<path d="M82.4685 53.2571H50.9894C50.6542 53.2571 50.3826 53.5288 50.3826 53.8639V60.4545C50.3826 60.7896 50.6542 61.0613 50.9894 61.0613H82.4685C82.8037 61.0613 83.0753 60.7896 83.0753 60.4545V53.8639C83.0753 53.5288 82.8037 53.2571 82.4685 53.2571Z" fill="#26A9E0"/>
<path d="M81.3874 53.6568C80.2885 52.003 77.8273 51.5435 76.0803 52.7465C74.7643 53.6526 74.2986 55.2893 74.9705 56.6558C75.7417 58.2241 77.6328 58.9309 79.3168 58.4772L81.5601 61.8532C81.8166 62.2391 82.3707 62.3641 82.7977 62.1323C83.2247 61.9004 83.3629 61.3996 83.1064 61.0136L80.8632 57.6376C81.996 56.6 82.256 54.9641 81.3874 53.6568ZM79.0793 56.9931C78.2612 57.3188 77.2785 57.0972 76.7255 56.4622C75.9137 55.5299 76.2864 54.1705 77.4886 53.69C78.308 53.3625 79.2932 53.5847 79.8463 54.2217C80.658 55.1564 80.2806 56.5148 79.0793 56.9931Z" fill="#193560"/>
<path d="M51.8799 56.661C49.8034 56.661 48.114 55.134 48.114 53.2571C48.114 51.3802 49.8034 49.8533 51.8799 49.8533C53.9561 49.8533 55.6455 51.3802 55.6455 53.2571C55.6455 55.134 53.9561 56.661 51.8799 56.661ZM51.8799 50.1035C49.9561 50.1035 48.3909 51.5183 48.3909 53.2571C48.3909 54.996 49.9561 56.4108 51.8799 56.4108C53.8036 56.4108 55.3686 54.996 55.3686 53.2571C55.3686 51.5183 53.8036 50.1035 51.8799 50.1035Z" fill="#193560"/>
<path d="M51.88 56.661C50.782 56.661 49.9219 55.1659 49.9219 53.2571C49.9219 51.3484 50.782 49.8533 51.88 49.8533C52.9777 49.8533 53.8378 51.3484 53.8378 53.2571C53.8378 55.1659 52.9777 56.661 51.88 56.661ZM51.88 50.1035C50.9685 50.1035 50.1988 51.5477 50.1988 53.2571C50.1988 54.9666 50.9685 56.4108 51.88 56.4108C52.7912 56.4108 53.5609 54.9666 53.5609 53.2571C53.5609 51.5477 52.7912 50.1035 51.88 50.1035Z" fill="#193560"/>
<path d="M55.507 53.1321H48.2524V53.3824H55.507V53.1321Z" fill="#193560"/>
<path d="M51.9139 51.8295C50.0426 51.8295 48.6834 51.7129 48.6628 51.7111L48.6896 51.462C48.7202 51.4647 51.7547 51.7249 54.9998 51.4619L55.0247 51.7112C53.9288 51.7999 52.8562 51.8295 51.9139 51.8295Z" fill="#193560"/>
<path d="M54.9997 54.9845C51.7543 54.7219 48.7201 54.9818 48.6896 54.9844L48.6631 54.7353C48.6936 54.7326 51.7524 54.4704 55.0246 54.7352L54.9997 54.9845Z" fill="#193560"/>
<path d="M62.9796 56.1484L62.0919 58.601H61.4176L60.8206 56.9402L60.2044 58.601H59.5338L58.6421 56.1484H59.2935L59.9059 57.8722L60.5453 56.1484H61.1269L61.7471 57.8863L62.3788 56.1484H62.9796Z" fill="#193560"/>
<path d="M67.4876 56.1484L66.5999 58.601H65.9256L65.3286 56.9402L64.7124 58.601H64.0419L63.1501 56.1484H63.8015L64.4139 57.8722L65.0533 56.1484H65.6349L66.2552 57.8863L66.8868 56.1484H67.4876Z" fill="#193560"/>
<path d="M71.9957 56.1484L71.108 58.601H70.4337L69.8367 56.9402L69.2205 58.601H68.5499L67.6582 56.1484H68.3096L68.922 57.8722L69.5614 56.1484H70.143L70.7633 57.8863L71.3949 56.1484H71.9957Z" fill="#193560"/>
<path d="M45.9469 116.889L61.1019 98.9657C63.289 96.3792 63.1723 92.332 60.8407 89.9038C58.4399 87.4035 54.6369 87.5955 52.4536 90.3274L37.8162 108.643C35.5774 111.397 36.0642 115.697 38.8483 117.76C41.0897 119.421 44.092 119.053 45.9469 116.889Z" fill="#26A9E0"/>
<path d="M47.5474 140.532L50.8079 140.561L50.5596 142.332H47.5474V140.532Z" fill="white"/>
<path d="M36.4494 111.999L35.7961 132.099L46.3834 133.402L47.4566 113.055C47.7031 109.367 44.935 106.289 41.5872 106.53C38.8921 106.724 36.719 109.037 36.4494 111.999Z" fill="#26A9E0"/>
<path d="M66.4361 83.9243C66.1955 86.3972 64.6218 88.5411 64.2161 88.762L67.5634 93.5713L70.5863 91.204C69.4382 89.9754 70.7667 86.8583 70.7667 86.8583L66.4361 83.9243Z" fill="#B84B26"/>
<path d="M76.3042 78.9566C76.6782 80.5019 75.5711 80.8014 74.9446 82.589C74.5336 83.7618 74.2974 84.884 73.8943 85.6255C72.8847 87.4824 71.6131 88.7042 70.4423 88.7184C69.3565 88.7317 67.9303 87.8096 67.1988 87.0124C66.2388 85.9661 65.6263 84.6138 65.5179 83.4398C64.3168 82.7495 63.6417 81.0362 64.8109 80.1876C65.98 79.3389 66.2987 80.3767 66.2987 80.3767C66.2987 80.3767 65.3683 74.7148 70.5278 74.9847C75.687 75.2545 75.9302 77.4113 76.3042 78.9566Z" fill="#B84B26"/>
<path d="M68.8341 76.9473C69.5083 81.8734 77.1373 82.8424 79.5299 79.4744C77.0572 79.533 76.0616 75.1576 73.0217 74.286C69.9818 73.4143 68.5823 74.3331 68.5823 74.3331C65.3879 73.9281 64.8023 78.6996 64.8003 79.5572C64.7964 81.3179 66.0064 82.8098 66.0064 82.8098C65.9262 81.2372 66.6223 80.3975 67.6518 79.4117C68.6812 78.4259 68.8341 76.9473 68.8341 76.9473Z" fill="#231F20"/>
<path d="M41.574 154.82C40.5905 158.398 39.607 161.975 38.6234 165.552C36.4766 166.967 35.4544 168.526 34.9177 169.703C34.0535 171.599 34.2694 172.898 33.2332 174.039C32.0709 175.318 30.242 175.397 28.8803 175.265C28.6985 171.075 28.9814 164.259 32.1384 157.066C33.1542 154.751 34.2996 152.78 35.4206 151.133C36.0726 151.121 37.2908 151.195 38.6234 151.9C40.3234 152.799 41.2244 154.203 41.574 154.82Z" fill="#88898B"/>
<path d="M49.151 169.058C50.2026 165.224 51.2542 161.391 52.3057 157.557L41.5738 154.82C40.5903 158.398 39.6068 161.975 38.6233 165.552C42.1325 166.721 45.6418 167.889 49.151 169.058Z" fill="#B84B26"/>
<path d="M68.414 126.654C72.004 132.895 76.0028 141.938 77.0283 152.823C77.7192 160.155 76.6443 163.901 75.5768 166.338C73.5731 170.912 70.399 173.606 68.5181 174.945C66.2214 175.335 63.4222 175.552 60.2682 175.238C52.1501 174.43 46.198 170.554 43.0896 168.132C44.2258 163.766 45.362 159.4 46.4981 155.034L58.909 157.54L52.3948 137.183L68.414 126.654Z" fill="#2E576C"/>
<path d="M84.3511 163.92C88.2607 163.763 92.1702 163.606 96.0798 163.449C100.789 167.767 104.006 168.558 106.141 168.383C106.809 168.328 108.566 168.08 109.334 169.652C109.917 170.847 109.709 172.641 109.426 174.012C101.636 174.303 93.8455 174.492 86.0549 174.58C85.493 174.587 84.9314 174.593 84.3701 174.598C84.1166 174.158 82.9581 172.05 83.0573 168.882C83.1403 166.23 84.0538 164.455 84.3511 163.92Z" fill="#88898B"/>
<path d="M97.8822 151.225C94.2998 151.143 90.7174 151.06 87.135 150.978C86.2086 155.313 85.2821 159.649 84.3557 163.984C88.3153 163.9 92.2749 163.817 96.2345 163.733L97.8822 151.225Z" fill="#B84B26"/>
<path d="M48.4882 123.332C53.1364 122.357 56.9345 121.79 59.5946 121.449C62.7464 121.045 65.0384 120.864 68.327 119.874C71.2731 118.988 73.0862 118.034 74.5018 117.39C77.3152 116.111 86.8376 111.782 94.5299 115.14C96.2352 115.884 100.548 118.183 103.866 125.388L97.8702 158.542H83.1908L86.0859 132.929L61.2378 141.037C51.2585 143.067 46.9039 134.744 47.8517 127.917L48.4882 123.332Z" fill="#2E576C"/>
<path d="M67.9137 136.805V136.799H34.0898C33.0003 131.402 28.3263 127.333 22.7419 127.333C16.3522 127.333 11.1536 132.66 11.1536 139.209C11.1536 139.29 11.158 139.37 11.1597 139.451H15.801C15.7982 139.37 15.7889 139.291 15.7889 139.209C15.7889 135.28 18.9081 132.083 22.7419 132.083C26.5757 132.083 29.6947 135.28 29.6947 139.209C29.6947 139.291 29.6855 139.37 29.6828 139.451H70.2612C70.2654 139.392 70.2785 139.335 70.2785 139.274C70.2785 137.925 69.2237 136.832 67.9137 136.805Z" fill="#F6921E"/>
<path d="M67.9136 139.451H29.6827C29.5565 143.268 26.4957 146.334 22.7418 146.334C18.9878 146.334 15.9271 143.268 15.8009 139.451H11.1597C11.2865 145.888 16.4312 151.085 22.7418 151.085C28.2792 151.085 32.9192 147.083 34.0592 141.754H58.5493V147.22C58.5493 148.15 59.2847 148.904 60.1918 148.904C61.1024 148.904 61.8404 148.147 61.8404 147.214V141.754H63.161V143.89C63.161 144.852 63.9218 145.632 64.8605 145.632C65.7395 145.632 66.4522 144.901 66.4522 144V141.754H67.9136V141.744C69.1643 141.717 70.172 140.717 70.2611 139.451H67.9136Z" fill="#F6921E"/>
<path d="M87.9726 156.153L87.7576 156.131L90.762 126.796C82.6887 128.787 74.8712 130.966 67.5239 133.274L67.0419 133.425C62.4326 134.876 58.4519 136.13 55.3476 133.845C52.2911 131.596 51.4994 127.045 51.3733 123.623L51.5893 123.615C51.7136 126.99 52.4887 131.473 55.4757 133.671C58.4918 135.891 62.2364 134.712 66.977 133.219L67.4591 133.067C74.8559 130.744 82.7288 128.551 90.8593 126.549L91.0083 126.512L87.9726 156.153Z" fill="white"/>
<path d="M98.3847 156.033H83.375V156.25H98.3847V156.033Z" fill="white"/>
<path d="M65.777 162.113C65.0791 162.113 63.2967 161.972 58.6086 161.329C54.764 160.802 50.7314 160.174 49.5168 159.939L49.5578 159.727C52.5039 160.296 65.0896 162.119 66.0767 161.887C65.9119 160.987 62.9108 150.963 61.737 147.073L61.9439 147.01C62.3898 148.488 66.3 161.46 66.3 161.939C66.3 161.98 66.2817 162.017 66.2485 162.044C66.218 162.07 66.165 162.113 65.777 162.113Z" fill="white"/>
<path d="M50.2466 155.785L46.4866 170.528L46.696 170.581L50.456 155.839L50.2466 155.785Z" fill="white"/>
<path d="M30.4777 175.316L30.2617 175.307C30.4245 170.989 31.1439 166.724 32.4 162.63C33.6212 158.65 35.3374 154.873 37.5008 151.405L37.6843 151.519C35.5307 154.972 33.8224 158.732 32.6067 162.694C31.3561 166.77 30.6398 171.016 30.4777 175.316Z" fill="white"/>
<path d="M96.4367 172.229C95.8836 172.229 95.3319 172.227 94.7802 172.223C90.9724 172.197 87.1134 172.082 83.3103 171.88L83.3218 171.664C87.1215 171.866 90.9771 171.981 94.7817 172.007C99.7003 172.04 104.684 171.925 109.593 171.664L109.604 171.88C105.241 172.112 100.819 172.229 96.4367 172.229Z" fill="white"/>
<path d="M96.0372 87.2981C97.0971 85.9867 98.3049 84.8303 99.631 83.8568L102.627 81.658C103.283 81.1195 104.056 80.7789 104.868 80.6698L111.534 80.6358C112.042 80.5674 112.499 80.9831 112.533 81.5461C112.563 82.0199 112.281 82.4491 111.864 82.5668L106.255 83.1603L104.759 84.4389C105.206 84.0347 106.027 84.1279 106.295 84.6929C106.482 85.089 106.468 85.6789 106.175 85.9875L102.007 89.7549C101.135 90.6735 99.8892 91.0174 98.728 90.6599L96.6389 94.3301L92.7952 91.3092L96.0372 87.2981Z" fill="#B84B26"/>
<path d="M90.929 110.65L99.7667 94.3302L92.8385 87.8152L81.3127 104.652C79.6993 107.895 81.0586 111.961 84.195 113.274C86.7198 114.331 89.568 113.221 90.929 110.65Z" fill="#26A9E0"/>
<path d="M88.1728 102.361L62.4066 90.2134L57.6768 102.177L83.8932 113.589C87.0032 114.976 90.5078 113.013 91.3244 109.426C91.9817 106.539 90.6487 103.55 88.1728 102.361Z" fill="#26A9E0"/>
<path d="M73.1312 99.6821L72.0591 108.471L72.2736 108.497L73.3458 99.7083L73.1312 99.6821Z" fill="white"/>
<path d="M68.3378 92.6656C69.8559 94.9522 71.374 97.2388 72.8921 99.5254C72.7434 103.5 72.1681 108.454 70.5714 113.895C69.8927 116.208 69.1204 118.299 68.3269 120.161C61.7139 121.314 55.101 122.467 48.488 123.619L53.0973 97.3511C53.6044 91.7587 59.5097 88.8621 59.5097 88.8621L68.3378 92.6656Z" fill="#26A9E0"/>
<path d="M55.4745 105.453L50.5615 111.265L50.7266 111.405L55.6396 105.592L55.4745 105.453Z" fill="white"/>
<path d="M70.7981 96.8351L71.309 92.5509C71.3226 92.4281 71.3525 92.0298 71.1306 91.619C70.9097 91.2101 70.5786 91.047 70.4736 91.0006C70.2203 91.1299 68.4902 91.9744 66.6037 91.0388C64.9416 90.2144 64.3278 88.5882 64.2084 88.2517C64.0718 88.2027 63.56 88.0349 63.0735 88.3254C62.9511 88.3985 62.8378 88.4934 62.7386 88.6089L60.3396 91.4027L70.7981 96.8351Z" fill="#26A9E0"/>
<path d="M206.359 168.486C206.359 168.486 180.792 149.453 169.976 160.427C161.341 169.19 176.67 179.485 196.28 176.716C210.083 174.768 211.647 177.598 214.065 177.537C232.056 176.059 256.298 170.291 244.501 161.227C228.429 148.881 217.559 161.97 211.959 165.228L206.359 168.486Z" fill="#2E576C"/>
<path d="M239.416 160.77C232.696 159.284 207.096 169.459 207.096 169.459C207.096 169.459 184.803 162.257 179.47 161.571C174.136 160.885 171.683 163.057 171.683 163.057C171.683 163.057 174.199 160.018 177.123 159.741C180.046 159.465 184.27 158.713 184.27 158.713C184.27 158.713 226.936 156.541 232.589 157.912C238.243 159.284 239.416 160.77 239.416 160.77Z" fill="#1B3B44"/>
<path d="M191.575 129.564C182.765 136.018 173.121 149.554 176.803 157.264C179.174 162.23 186.19 165.157 199.234 164.666C208.354 164.323 216.919 165.243 216.919 165.243C216.919 165.243 232.563 161.832 235.683 156.807C241.128 148.038 227.674 134.984 222.385 130.742C219.286 128.257 213.487 123.744 205.428 124.046C198.901 124.291 194.305 127.565 191.575 129.564Z" fill="#26A9E0"/>
<path d="M216.922 165.298L216.913 165.297C216.827 165.288 208.247 164.381 199.236 164.72C192.937 164.957 187.81 164.4 183.998 163.062C180.422 161.808 177.985 159.865 176.754 157.288C175.083 153.787 176.043 148.683 179.458 142.915C182.432 137.893 186.95 132.885 191.544 129.521C194.062 127.676 198.749 124.243 205.426 123.992C213.67 123.684 219.579 128.423 222.419 130.7C225.551 133.212 230.003 137.512 233.104 142.047C234.96 144.76 236.169 147.308 236.699 149.62C237.327 152.36 237 154.788 235.729 156.836C234.109 159.445 229.081 161.607 225.148 162.961C220.894 164.426 216.969 165.288 216.93 165.296L216.922 165.298ZM203.426 164.536C210.62 164.536 216.645 165.16 216.916 165.189C217.354 165.092 232.593 161.68 235.637 156.779C236.893 154.756 237.215 152.356 236.593 149.644C236.067 147.345 234.863 144.81 233.015 142.108C229.92 137.583 225.478 133.292 222.351 130.785C219.522 128.515 213.636 123.79 205.43 124.1C198.787 124.349 194.116 127.77 191.607 129.608C187.025 132.964 182.518 137.96 179.551 142.97C176.155 148.706 175.196 153.774 176.852 157.241C178.07 159.792 180.486 161.716 184.034 162.961C187.833 164.293 192.947 164.849 199.232 164.612C200.652 164.559 202.06 164.536 203.426 164.536Z" fill="#F9F9F9"/>
<path d="M205.289 130.412C203.588 130.412 202.197 129.006 202.197 127.287V116.768C202.197 115.049 203.588 113.642 205.289 113.642C206.989 113.642 208.38 115.049 208.38 116.768V127.287C208.38 129.006 206.989 130.412 205.289 130.412Z" fill="#B74926"/>
<path d="M212.074 117.193C211.566 118.241 210.741 118.823 210.231 118.491C209.722 118.16 209.72 117.042 210.228 115.993C210.736 114.945 211.561 114.363 212.071 114.695C212.581 115.026 212.582 116.144 212.074 117.193Z" fill="#B74926"/>
<path d="M200.113 116.071C200.7 117.025 200.813 118.178 200.365 118.646C199.916 119.114 199.077 118.72 198.489 117.766C197.902 116.812 197.789 115.66 198.237 115.192C198.686 114.723 199.525 115.117 200.113 116.071Z" fill="#B74926"/>
<path d="M210.745 117.125C210.745 120.948 208.364 124.046 205.428 124.046C202.491 124.046 200.111 120.948 200.111 117.125C200.111 113.303 202.492 110.204 205.428 110.204C208.364 110.204 210.745 113.303 210.745 117.125Z" fill="#B74926"/>
<path d="M220.303 138.496C224.569 140.935 228.287 150.177 228.287 150.177C228.287 150.177 218.687 151.777 216.696 153.378C214.705 154.978 216.981 152.768 218.119 148.347C219.256 143.927 220.303 138.496 220.303 138.496Z" fill="#1B75BB"/>
<path d="M190.598 137.83C191.594 142.708 196.358 156.325 196.358 156.325C196.358 156.325 191.946 150.939 187.256 150.634C182.567 150.329 180.827 150.253 180.856 151.472C180.862 151.713 181.639 146.061 185.265 142.555C188.892 139.05 190.598 137.83 190.598 137.83Z" fill="#1B75BB"/>
<path d="M219.198 168.538H193.435C192.397 168.538 191.511 167.734 191.339 166.637L188.233 146.767C188.016 145.378 189.015 144.113 190.329 144.113H222.305C223.618 144.113 224.617 145.378 224.4 146.767L221.294 166.637C221.122 167.734 220.236 168.538 219.198 168.538Z" fill="#075B5C"/>
<path d="M219.198 168.538H193.435C192.397 168.538 191.511 167.763 191.339 166.705L188.233 147.552C188.016 146.213 189.015 144.994 190.329 144.994H222.305C223.618 144.994 224.617 146.213 224.4 147.552L221.294 166.705C221.122 167.763 220.236 168.538 219.198 168.538Z" fill="#172D36"/>
<path d="M209.719 176.366C209.565 176.337 193.08 171.915 189.4 175.173C185.72 178.431 201.719 178.487 204.599 177.773C207.479 177.06 209.719 176.366 209.719 176.366Z" fill="#99999A"/>
<path d="M213.399 177.158C213.399 177.158 216.919 174.316 221.558 174.83C226.198 175.345 230.198 176.429 226.198 177.773C222.198 179.117 218.039 179.289 216.119 179.117C214.199 178.946 213.399 177.158 213.399 177.158Z" fill="#99999A"/>
<path d="M203.731 107.369C200.277 108.429 201.479 118.257 205.428 117.933C209.376 117.61 209.536 113.36 209.256 110.607C208.976 107.855 207.294 106.277 203.731 107.369Z" fill="#020303"/>
<path d="M202.49 114.655C201.529 113.724 200.208 116.654 200.728 117.941C201.249 119.229 200.521 119.978 201.225 121.364C201.929 122.75 199.927 120.484 199.647 118.824C199.367 117.164 199.207 114.291 198.806 112.996C198.406 111.7 198.827 109.455 200.611 108.988C202.395 108.522 202.81 107.693 203.491 107.653C204.171 107.612 207.415 107.936 209.016 108.827C210.618 109.717 211.498 111.053 211.378 113.076C211.258 115.1 210.738 120.281 210.257 121.131C209.777 121.981 209.528 121.78 209.672 121.294C209.817 120.807 210.337 117.893 209.937 116.841C209.537 115.788 209.737 113.198 208.696 112.996C207.655 112.793 207.895 114.588 206.654 114.723C205.413 114.857 202.49 114.655 202.49 114.655Z" fill="#020303"/>
<path d="M203.843 135.029L203.734 134.956C203.04 134.495 201.354 133.16 200.677 130.725C199.733 127.333 201.465 124.564 201.822 124.043L202 124.166C201.653 124.672 199.967 127.367 200.885 130.667C201.51 132.913 203.017 134.195 203.744 134.702L205.653 130.065L208.576 134.423C209.128 133.803 210.489 132.001 210.463 129.352C210.436 126.477 208.804 124.64 208.305 124.146L208.456 123.992C208.971 124.501 210.651 126.392 210.68 129.35C210.708 132.242 209.127 134.154 208.642 134.671L208.549 134.77L205.699 130.521L203.843 135.029Z" fill="#F9F9F9"/>
<path d="M190.703 137.803L190.494 137.858L192.141 144.042L192.35 143.986L190.703 137.803Z" fill="#F9F9F9"/>
<path d="M220.197 138.473L219.001 143.856L219.213 143.903L220.408 138.52L220.197 138.473Z" fill="#F9F9F9"/>
<path d="M206.429 159.754C207.885 159.754 209.065 158.489 209.065 156.929C209.065 155.368 207.885 154.104 206.429 154.104C204.974 154.104 203.793 155.368 203.793 156.929C203.793 158.489 204.974 159.754 206.429 159.754Z" fill="#1B75BB"/>
<path d="M206.429 159.861C204.916 159.861 203.685 158.546 203.685 156.928C203.685 155.311 204.916 153.995 206.429 153.995C207.942 153.995 209.173 155.311 209.173 156.928C209.173 158.546 207.942 159.861 206.429 159.861ZM206.429 154.211C205.035 154.211 203.901 155.43 203.901 156.928C203.901 158.426 205.035 159.645 206.429 159.645C207.823 159.645 208.957 158.426 208.957 156.928C208.957 155.43 207.823 154.211 206.429 154.211Z" fill="#F9F9F9"/>
<path d="M202.772 172.784C195.34 172.784 188.061 171.483 181.121 168.913C176.722 167.284 172.464 165.138 168.464 162.534L168.582 162.353C172.568 164.948 176.812 167.087 181.196 168.71C188.416 171.384 196.003 172.68 203.749 172.56L207.021 169.381L207.171 169.536L203.838 172.775L203.795 172.776C203.454 172.781 203.113 172.784 202.772 172.784Z" fill="#F9F9F9"/>
<path d="M213.239 172.648C212.935 172.648 212.632 172.646 212.327 172.641L212.278 172.641L209.108 168.881L209.273 168.742L212.38 172.426C219.557 172.522 226.636 171.422 233.424 169.157C237.919 167.658 242.29 165.639 246.414 163.158L246.526 163.344C242.388 165.833 238.002 167.858 233.492 169.362C226.954 171.544 220.145 172.648 213.239 172.648Z" fill="#F9F9F9"/>
<path d="M45.6936 137.085C45.8467 137.606 45.6786 138.177 45.2771 138.499C44.7306 138.938 43.9602 138.765 43.6138 138.125L43.33 137.6C42.71 137.979 41.858 139.031 42.7622 142.511C42.9142 143.097 42.607 143.707 42.0759 143.875C41.6611 144.006 41.2322 143.828 40.992 143.464C40.9809 143.448 40.9728 143.428 40.9625 143.411C40.8665 143.755 40.6207 144.041 40.2829 144.148C39.8681 144.278 39.4392 144.1 39.199 143.737C39.1674 143.689 39.1398 143.638 39.1152 143.584C38.9996 143.71 38.8578 143.81 38.6903 143.863C38.2755 143.994 37.8466 143.816 37.6064 143.453C37.5391 143.351 37.4869 143.235 37.4536 143.107C37.4418 143.061 37.4332 143.018 37.4218 142.972C37.4046 142.979 37.3893 142.988 37.3716 142.994C36.9569 143.125 36.528 142.947 36.2878 142.584C36.2205 142.482 36.1682 142.365 36.135 142.238C35.8853 141.277 35.7422 140.39 35.6973 139.581L35.6955 139.582C35.6955 139.582 35.6951 139.567 35.6946 139.544C35.6946 139.544 35.6825 139.017 35.7053 138.454C35.7215 138.051 36.0684 135.573 36.7853 132.221C39.3696 132.532 41.9539 132.842 44.5382 133.153L45.6936 137.085Z" fill="#B84B26"/>
<path d="M166.076 51.9102H208.366C209.153 51.9102 209.792 52.5492 209.792 53.3362V60.1047C209.792 60.8918 209.153 61.5308 208.366 61.5308H166.076C165.289 61.5308 164.65 60.8918 164.65 60.1047V53.3362C164.65 52.5492 165.289 51.9102 166.076 51.9102Z" fill="#26A9E0"/>
<path d="M175.578 54.944L174.321 56.3919L174.333 56.4263L176.182 56.0615V57.2131L174.321 56.8938L174.309 56.9281L175.578 58.3305L174.542 58.9233L173.879 57.156L173.855 57.1672L173.181 58.9232L172.179 58.3305L173.425 56.9054V56.8821L171.597 57.2131V56.0615L173.402 56.4147L173.413 56.3919L172.179 54.9551L173.216 54.374L173.867 56.1185H173.89L174.554 54.374L175.578 54.944Z" fill="#244552"/>
<path d="M180.864 54.944L179.607 56.3919L179.619 56.4263L181.468 56.0615V57.2131L179.607 56.8938L179.595 56.9281L180.864 58.3305L179.828 58.9233L179.165 57.156L179.141 57.1672L178.467 58.9232L177.466 58.3305L178.711 56.9054V56.8821L176.884 57.2131V56.0615L178.687 56.4147L178.699 56.3919L177.466 54.9551L178.502 54.374L179.153 56.1185H179.176L179.84 54.374L180.864 54.944Z" fill="#244552"/>
<path d="M186.149 54.944L184.892 56.3919L184.904 56.4263L186.754 56.0615V57.2131L184.892 56.8938L184.881 56.9281L186.149 58.3305L185.114 58.9233L184.45 57.156L184.427 57.1672L183.752 58.9232L182.752 58.3305L183.997 56.9054V56.8821L182.169 57.2131V56.0615L183.973 56.4147L183.984 56.3919L182.752 54.9551L183.787 54.374L184.438 56.1185H184.462L185.125 54.374L186.149 54.944Z" fill="#244552"/>
<path d="M191.435 54.944L190.178 56.3919L190.19 56.4263L192.04 56.0615V57.2131L190.178 56.8938L190.167 56.9281L191.435 58.3305L190.4 58.9233L189.736 57.156L189.713 57.1672L189.038 58.9232L188.036 58.3305L189.283 56.9054V56.8821L187.455 57.2131V56.0615L189.259 56.4147L189.27 56.3919L188.036 54.9551L189.073 54.374L189.724 56.1185H189.748L190.411 54.374L191.435 54.944Z" fill="#244552"/>
<path d="M196.721 54.944L195.464 56.3919L195.476 56.4263L197.326 56.0615V57.2131L195.464 56.8938L195.453 56.9281L196.721 58.3305L195.686 58.9233L195.023 57.156L194.999 57.1672L194.324 58.9232L193.324 58.3305L194.569 56.9054V56.8821L192.741 57.2131V56.0615L194.545 56.4147L194.556 56.3919L193.324 54.9551L194.359 54.374L195.01 56.1185H195.034L195.697 54.374L196.721 54.944Z" fill="#244552"/>
<path d="M202.007 54.944L200.749 56.3919L200.762 56.4263L202.611 56.0615V57.2131L200.749 56.8938L200.738 56.9281L202.007 58.3305L200.971 58.9233L200.308 57.156L200.284 57.1672L199.609 58.9232L198.609 58.3305L199.854 56.9054V56.8821L198.026 57.2131V56.0615L199.83 56.4147L199.841 56.3919L198.609 54.9551L199.644 54.374L200.295 56.1185H200.319L200.982 54.374L202.007 54.944Z" fill="#244552"/>
</g>
<defs>
<clipPath id="clip0_1_255">
<rect width="271.25" height="195.819" fill="white"/>
</clipPath>
</defs>
</svg>
