<svg width="348" height="260" viewBox="0 0 348 260" fill="none" xmlns="http://www.w3.org/2000/svg">
<g clip-path="url(#clip0_1_2484)">
<path d="M79.6468 61.1951C77.5495 45.7698 69.8368 34.3364 59.0798 28.1796C48.3227 22.0228 34.5212 21.2788 20.1782 27.3001C24.3729 58.0831 51.0288 73.2376 79.6468 61.1951Z" fill="#199180"/>
<path d="M76.264 59.5714L24.6436 30.0066C24.5757 30.0066 24.5757 29.9387 24.5757 29.8714C24.5757 29.8042 24.6436 29.8035 24.7109 29.8035L76.5348 59.0978C76.67 59.1658 76.7376 59.3686 76.67 59.4362C76.6301 59.5039 76.567 59.5549 76.4925 59.5797C76.4179 59.6046 76.3369 59.6016 76.2644 59.5714H76.264Z" fill="white"/>
<path d="M46.5636 42.3871C44.9702 42.3098 43.3742 42.4695 41.8278 42.861C41.0631 43.0713 40.3165 43.3427 39.5953 43.6726C38.8814 44.0129 38.2018 44.4207 37.5655 44.8904C37.5008 44.9289 37.4245 44.9432 37.3502 44.9308C37.2759 44.9185 37.2084 44.8802 37.1596 44.8228C37.0244 44.6876 37.092 44.5524 37.2272 44.4172C37.9118 43.9677 38.6365 43.5826 39.3921 43.2666C40.1378 42.9578 40.907 42.709 41.6922 42.5227C43.2667 42.1615 44.891 42.0701 46.496 42.2523C46.6312 42.3195 46.6312 42.3192 46.5636 42.3871ZM62.2593 51.3176C61.3045 50.0175 60.5518 48.5805 60.0268 47.0553C59.7434 46.2932 59.5614 45.4972 59.4856 44.6876C59.3732 43.8809 59.3279 43.0662 59.3504 42.2519C59.3504 42.1802 59.3789 42.1114 59.4296 42.0607C59.4803 42.01 59.5491 41.9815 59.6208 41.9815C59.6925 41.9815 59.7613 42.01 59.812 42.0607C59.8627 42.1114 59.8912 42.1802 59.8912 42.2519C59.8235 43.0397 59.8235 43.8319 59.8912 44.6197C59.9444 45.4044 60.1038 46.1783 60.3651 46.9202C60.7853 48.4682 61.423 49.9488 62.2593 51.3176ZM67.807 54.43C66.2138 54.3525 64.6179 54.5121 63.0715 54.9035C62.3068 55.114 61.5602 55.3855 60.839 55.7154C60.1251 56.0556 59.4453 56.4633 58.8089 56.9329C58.778 56.9572 58.7424 56.975 58.7044 56.9851C58.6664 56.9953 58.6267 56.9977 58.5877 56.9921C58.5488 56.9865 58.5113 56.973 58.4777 56.9526C58.4441 56.9321 58.415 56.905 58.3921 56.873C58.3693 56.841 58.3531 56.8046 58.3447 56.7662C58.3363 56.7278 58.3357 56.688 58.3431 56.6494C58.3505 56.6107 58.3656 56.5739 58.3876 56.5413C58.4095 56.5086 58.4379 56.4808 58.4709 56.4594C59.1555 56.0101 59.8803 55.6252 60.6359 55.3095C61.3815 55.0005 62.1507 54.7516 62.936 54.5652C64.5103 54.204 66.1345 54.1126 67.7394 54.2948C67.778 54.3299 67.8021 54.3781 67.807 54.43ZM38.5806 37.7869C37.6256 36.4868 36.8728 35.0498 36.3477 33.5246C36.0643 32.7625 35.8824 31.9664 35.8065 31.1569C35.6902 30.3504 35.645 29.5352 35.6713 28.7208C35.6713 28.6491 35.6998 28.5804 35.7505 28.5296C35.8012 28.4789 35.87 28.4504 35.9417 28.4504C36.0135 28.4504 36.0822 28.4789 36.1329 28.5296C36.1837 28.5804 36.2121 28.6491 36.2121 28.7208C36.1444 29.5088 36.1444 30.301 36.2121 31.0889C36.2653 31.8735 36.4248 32.6473 36.686 33.3891C37.0639 34.9516 37.7048 36.4387 38.5806 37.7869Z" fill="white"/>
<path d="M79.6468 61.195C86.4123 47.1908 86.2768 33.3889 80.6615 22.2935C75.0462 11.266 63.9508 2.94431 48.7286 0.103027C35.2652 28.112 49.1342 55.5121 79.6468 61.195Z" fill="#2AB19F"/>
<path d="M77.7526 58.0154L50.9612 4.83881C50.9612 4.77121 50.9612 4.70361 51.0288 4.70361C51.0964 4.70361 51.164 4.70362 51.164 4.77122L78.2262 57.8123C78.241 57.8431 78.2493 57.8767 78.2505 57.911C78.2516 57.9452 78.2457 57.9793 78.233 58.0112C78.2203 58.043 78.2011 58.0718 78.1766 58.0958C78.1522 58.1198 78.123 58.1385 78.091 58.1506C77.9554 58.1506 77.8202 58.1506 77.7526 58.0154Z" fill="white"/>
<path d="M62.395 27.2326C61.124 26.2874 59.7071 25.5561 58.2003 25.0676C57.4522 24.816 56.6821 24.6348 55.9002 24.5265C55.1164 24.4121 54.3241 24.3669 53.5325 24.3913C53.4607 24.3913 53.3918 24.3628 53.341 24.312C53.2902 24.2612 53.2617 24.1924 53.2617 24.1205C53.2617 24.0487 53.2902 23.9799 53.341 23.9291C53.3918 23.8783 53.4607 23.8498 53.5325 23.8498C54.3485 23.8502 55.163 23.9182 55.9678 24.0529C56.7538 24.2065 57.5239 24.4329 58.2679 24.7293C59.7907 25.2929 61.1915 26.1426 62.395 27.2326ZM70.5812 43.4021C70.4893 41.7819 70.6723 40.1579 71.1223 38.5987C71.3216 37.8086 71.5934 37.0385 71.9342 36.2982C72.274 35.5627 72.6817 34.8606 73.1521 34.2009C73.2197 34.0657 73.4225 34.0657 73.5577 34.1333C73.6929 34.2009 73.6932 34.4037 73.6256 34.5393C73.1203 35.1396 72.6887 35.7984 72.3402 36.5014C71.9778 37.193 71.6833 37.918 71.4607 38.6663C70.9778 40.1758 70.7269 41.7498 70.7164 43.3345C70.6488 43.4021 70.6488 43.4021 70.5812 43.4021ZM73.4901 49.0174C72.219 48.0723 70.8022 47.341 69.2954 46.8525C68.5472 46.6009 67.7772 46.4197 66.9953 46.3114C66.2115 46.197 65.4192 46.1518 64.6275 46.1762C64.5557 46.1762 64.4869 46.1476 64.4361 46.0969C64.3853 46.0461 64.3568 45.9772 64.3568 45.9054C64.3568 45.8336 64.3853 45.7648 64.4361 45.714C64.4869 45.6632 64.5557 45.6347 64.6275 45.6347C65.4436 45.6351 66.2583 45.703 67.0632 45.8378C67.8493 45.9914 68.6193 46.2178 69.3633 46.5142C70.8705 47.1094 72.266 47.9557 73.4904 49.0171C73.558 48.9498 73.558 49.0171 73.4904 49.0171L73.4901 49.0174ZM58.2679 19.046C58.1761 17.426 58.359 15.802 58.8091 14.243C59.0083 13.4528 59.2801 12.6827 59.621 11.9425C59.9607 11.207 60.3685 10.5048 60.8388 9.84516C60.9064 9.70996 61.1092 9.70996 61.2448 9.77756C61.3803 9.84516 61.38 10.048 61.3124 10.1835C60.807 10.7839 60.3755 11.4426 60.0269 12.1456C59.6646 12.8372 59.37 13.5622 59.1474 14.3106C58.6646 15.82 58.4136 17.394 58.4031 18.9788C58.3355 19.0464 58.3355 19.046 58.2679 19.046Z" fill="white"/>
<path d="M79.5793 61.1278C68.4839 50.1675 55.4263 45.8373 43.1134 47.5287C30.8005 49.2201 19.434 57.0683 11.7893 70.5994C33.9122 92.4515 64.2892 88.1896 79.5793 61.1278Z" fill="#48DBC5"/>
<path d="M75.9257 61.9394L16.9313 70.058C16.8801 70.0509 16.8326 70.0272 16.7961 69.9904L16.8634 69.8552L75.7908 61.4659C75.8606 61.4646 75.9293 61.4829 75.9891 61.5187C76.0489 61.5546 76.0975 61.6066 76.1292 61.6687C76.1968 61.7366 76.0616 61.9394 75.926 61.9394H75.9257Z" fill="white"/>
<path d="M41.8955 66.4725C40.6027 67.3926 39.4419 68.4852 38.4451 69.7197C37.9778 70.3475 37.5486 71.0027 37.1596 71.6818C36.7973 72.3734 36.5028 73.0985 36.2802 73.8468C36.2601 73.9163 36.214 73.9753 36.1513 74.0114C36.0887 74.0474 36.0145 74.0578 35.9443 74.0403C35.8742 74.0228 35.8136 73.9787 35.7753 73.9174C35.737 73.8561 35.724 73.7823 35.739 73.7116C36.0077 72.9377 36.3474 72.1904 36.7537 71.479C37.1658 70.7826 37.6413 70.1258 38.1743 69.5169C39.2207 68.2857 40.4814 67.2542 41.8955 66.4725ZM59.824 63.9692C58.2758 63.5437 56.8116 62.8573 55.4942 61.9395C54.8338 61.4812 54.2012 60.9842 53.5996 60.4512C53.0092 59.8823 52.487 59.2465 52.0438 58.5567C52.0054 58.492 51.9911 58.4158 52.0035 58.3416C52.0159 58.2673 52.0541 58.1999 52.1114 58.1511C52.2466 58.0156 52.3818 58.0832 52.517 58.2184C52.9139 58.8833 53.3911 59.4969 53.938 60.0453C54.4921 60.5992 55.0795 61.1188 55.6969 61.6011C56.9814 62.5417 58.394 63.2936 59.8916 63.8337C59.824 63.9016 59.8916 63.9016 59.824 63.9689V63.9692ZM66.0481 63.0897C64.7554 64.0099 63.5945 65.1024 62.5977 66.3369C62.1304 66.9647 61.7012 67.6199 61.3123 68.2991C60.9499 68.9906 60.6554 69.7157 60.4328 70.464C60.4011 70.5261 60.3525 70.5781 60.2927 70.614C60.2329 70.6498 60.1642 70.6681 60.0944 70.6668C59.9592 70.6668 59.8916 70.464 59.8916 70.3288C60.1603 69.555 60.5 68.8076 60.9063 68.0963C61.3185 67.3998 61.7942 66.743 62.3273 66.1341C63.4033 64.9337 64.6584 63.9068 66.0481 63.0897C66.1157 63.0897 66.1157 63.0221 66.0481 63.0897ZM32.7622 67.7579C31.214 67.3324 29.7497 66.646 28.4323 65.7282C27.772 65.2698 27.1394 64.7727 26.5378 64.2396C25.9472 63.6708 25.425 63.0351 24.9816 62.3454C24.9577 62.3144 24.9402 62.2789 24.9303 62.2411C24.9205 62.2032 24.9183 62.1637 24.924 62.125C24.9297 62.0862 24.9432 62.0491 24.9636 62.0157C24.984 61.9823 25.011 61.9533 25.0428 61.9305C25.0747 61.9078 25.1108 61.8917 25.149 61.8832C25.1872 61.8747 25.2267 61.874 25.2652 61.8812C25.3037 61.8883 25.3404 61.9031 25.373 61.9248C25.4056 61.9464 25.4336 61.9744 25.4551 62.0071C25.852 62.6721 26.3293 63.2856 26.8761 63.834C27.4303 64.3879 28.0177 64.9075 28.6351 65.3898C29.9196 66.3305 31.3321 67.0823 32.8298 67.6224C32.8298 67.69 32.8298 67.6903 32.7622 67.7579Z" fill="white"/>
<path d="M256.023 162.339C256.023 162.339 239.921 156.25 240.462 165.248C241.003 174.314 257.849 167.481 257.849 167.481L256.023 162.339Z" fill="#FFD1C4"/>
<path d="M197.84 246.231C197.64 246.524 197.481 246.843 197.366 247.178C197.336 247.261 197.332 247.352 197.357 247.437C197.381 247.522 197.432 247.597 197.501 247.652L212.859 258.882C212.91 258.918 212.969 258.941 213.031 258.95C213.092 258.959 213.155 258.953 213.214 258.933C213.273 258.914 213.327 258.881 213.371 258.836C213.415 258.792 213.448 258.739 213.468 258.68L214.686 255.77L218.677 246.366L212.115 242.578C212.115 242.578 209.95 246.502 204.131 244.405C200.546 243.119 198.719 244.878 197.84 246.231Z" fill="#464AE4"/>
<path d="M207.582 245.081C208.469 245.071 209.339 244.844 210.118 244.419C210.896 243.994 211.559 243.385 212.047 242.645L218.609 246.434L216.445 251.576L207.582 245.081Z" fill="#2624BD"/>
<path d="M273.68 251.508L256.226 258.95C256.143 258.986 256.051 258.992 255.965 258.967C255.878 258.943 255.803 258.889 255.752 258.815C255.617 258.612 255.414 258.274 255.143 257.868C254.399 256.447 253.858 253.944 256.835 251.508C257.571 250.938 258.21 250.252 258.729 249.478C260.826 246.366 259.338 243.728 259.338 243.728L265.968 240.007L269.012 244.134L271.989 248.193L273.883 250.764C273.951 250.89 273.967 251.038 273.929 251.176C273.892 251.315 273.803 251.433 273.68 251.508Z" fill="#464AE4"/>
<path d="M258.729 249.546C260.826 246.434 259.338 243.796 259.338 243.796L265.968 240.074L269.012 244.202L258.729 249.546Z" fill="#2624BD"/>
<path d="M255.888 208.547C255.888 208.547 271.854 217.884 271.854 239.872L254.196 249.614L230.179 219.305L255.888 208.547Z" fill="#191937"/>
<path d="M307.576 136.833L307.643 132.436V130.541C307.643 130.541 301.825 131.962 299.593 130.271C297.36 128.579 298.713 102.667 311.162 108.486C323.542 114.304 317.792 126.956 317.792 126.956L317.521 138.051C317.318 140.825 307.373 139.539 307.576 136.833Z" fill="#FFD1C4"/>
<path d="M317.318 127.362C316.845 127.023 309.335 123.437 313.732 121.476C318.062 119.513 316.777 114.981 314.476 115.184C312.244 115.387 312.853 118.905 311.094 118.702C309.335 118.499 309.537 114.034 309.537 114.034C309.537 114.034 303.11 113.83 301.081 113.154C297.698 112.004 291.068 106.93 298.781 98.8788C306.493 90.8278 302.772 103.412 319.28 103.818C335.788 104.291 317.318 127.362 317.318 127.362Z" fill="#7C3A3A"/>
<path d="M312.041 127.7C312.041 127.7 310.485 132.03 307.643 132.435V130.541C307.643 130.474 310.35 129.459 312.041 127.7Z" fill="#F1C0BA"/>
<path d="M325.707 203.338C325.707 203.338 319.551 212.742 294.789 213.08C278.62 212.674 258.12 210.644 253.452 215.719C244.792 224.987 234.373 251.779 225.578 253.064L205.958 239.262C205.958 239.262 206.432 236.556 216.445 227.017C226.091 217.981 234.816 208.009 242.492 197.249C245.874 192.513 279.499 182.771 292.489 182.974C305.478 183.177 325.707 203.338 325.707 203.338Z" fill="#292561"/>
<path d="M325.707 203.338C323.272 207.33 290.053 187.033 292.489 183.041C292.624 182.906 292.827 182.838 292.962 182.703C299.322 177.765 297.157 162.813 298.916 150.161C299.188 148.246 299.572 146.349 300.066 144.478C303.043 133.992 317.724 132.571 321.377 136.968C342.418 162.001 325.707 203.338 325.707 203.338H325.707Z" fill="#464AE4"/>
<path d="M310.688 157.806C310.553 159.7 309.944 161.527 309.267 163.286C307.643 167.616 305.614 171.879 302.434 175.329C299.728 178.238 296.345 180.471 293.03 182.636H292.962C299.322 177.697 297.157 162.745 298.916 150.094C299.873 149.733 300.874 149.505 301.893 149.417C304.193 149.282 306.899 149.958 308.658 151.582C310.282 153.003 310.823 155.777 310.688 157.806Z" fill="#2624BD"/>
<path d="M302.704 139.743C303.043 139.337 312.988 138.727 310.282 153.273C308.996 160.174 293.977 168.631 287.008 170.458C279.228 172.487 255.414 169.578 255.414 169.578L253.993 161.053C253.993 161.053 276.657 162.474 283.288 158.821C289.106 155.506 300.201 141.637 302.704 139.743Z" fill="#464AE4"/>
<path d="M276.387 259.018C276.664 259.017 276.935 258.932 277.164 258.775C277.394 258.618 277.57 258.397 277.672 258.138L293.909 211.456H317.859L334.096 258.139C334.154 258.303 334.243 258.454 334.36 258.584C334.476 258.714 334.617 258.819 334.774 258.895C334.931 258.97 335.101 259.014 335.275 259.023C335.449 259.033 335.623 259.008 335.788 258.95C335.952 258.893 336.103 258.803 336.233 258.687C336.363 258.57 336.468 258.43 336.544 258.273C336.619 258.116 336.663 257.945 336.672 257.771C336.682 257.597 336.657 257.423 336.599 257.259L320.024 209.697C319.93 209.434 319.755 209.207 319.524 209.048C319.293 208.89 319.018 208.81 318.738 208.818H292.894C292.617 208.819 292.346 208.903 292.117 209.06C291.887 209.217 291.711 209.439 291.609 209.697L275.169 257.259C275.108 257.423 275.081 257.598 275.09 257.772C275.098 257.947 275.141 258.119 275.217 258.276C275.292 258.434 275.399 258.575 275.53 258.691C275.661 258.807 275.815 258.895 275.981 258.95C276.108 259.005 276.248 259.029 276.386 259.018H276.387Z" fill="#D8DADF"/>
<path d="M329.225 241.427C329.42 241.435 329.614 241.397 329.79 241.314C329.967 241.232 330.121 241.108 330.24 240.954C330.355 240.818 330.441 240.66 330.493 240.49C330.545 240.319 330.562 240.14 330.543 239.963C330.524 239.786 330.469 239.615 330.382 239.46C330.295 239.305 330.178 239.168 330.037 239.06L293.774 209.021C293.496 208.797 293.14 208.692 292.785 208.73C292.43 208.768 292.104 208.946 291.88 209.224C291.656 209.502 291.551 209.858 291.589 210.213C291.627 210.568 291.805 210.894 292.083 211.118L328.346 241.157C328.603 241.338 328.911 241.432 329.225 241.427Z" fill="#D8DADF"/>
<path d="M282.544 241.427C282.705 241.432 282.866 241.405 283.018 241.347C283.169 241.289 283.306 241.201 283.423 241.089L319.686 211.05C319.96 210.825 320.133 210.5 320.169 210.147C320.205 209.794 320.101 209.441 319.878 209.165C319.655 208.889 319.333 208.711 318.98 208.672C318.627 208.632 318.273 208.733 317.995 208.953L281.732 238.992C281.459 239.22 281.286 239.545 281.248 239.898C281.21 240.252 281.311 240.606 281.529 240.887C281.627 241.065 281.776 241.211 281.956 241.307C282.136 241.403 282.34 241.445 282.544 241.428V241.427Z" fill="#D8DADF"/>
<path d="M277.604 210.238C277.623 210.95 277.737 211.655 277.943 212.336C278.134 212.89 278.488 213.374 278.959 213.724C279.43 214.074 279.995 214.274 280.581 214.298C288.564 214.501 318.197 215.177 325.369 212.133C332.066 209.291 342.891 172.758 346.815 158.821C347.187 157.452 347.009 155.992 346.319 154.752C345.629 153.512 344.482 152.591 343.123 152.185C341.764 151.779 340.3 151.92 339.043 152.579C337.786 153.237 336.837 154.36 336.396 155.709C332.878 166.601 322.121 192.31 319.415 196.708C316.979 200.767 296.074 203.203 283.423 204.014C281.847 204.127 280.372 204.831 279.293 205.986C278.214 207.14 277.611 208.659 277.604 210.238Z" fill="#48DBC5"/>
<path d="M147.369 171.067H298.442V176.817H147.369V171.067Z" fill="#E58C5C"/>
<path d="M294.383 176.885V185.206C294.383 185.815 292.895 186.289 291.068 186.289H155.014C153.187 186.289 151.699 185.815 151.699 185.206V176.817H294.383V176.885Z" fill="#CB6E39"/>
<path d="M290.12 176.885H296.209V259.018H290.12V176.885ZM149.872 176.885H155.961V259.018H149.872V176.885Z" fill="#CB6E39"/>
<path d="M280.108 4.83886V147.049C280.108 149.688 277.875 151.853 275.101 151.853H71.9341C69.1604 151.853 66.9275 149.688 66.9275 147.049V4.83886C66.9275 2.20038 69.16 0.0354463 71.9341 0.0354463H275.169C275.809 0.0239752 276.446 0.139398 277.041 0.375057C277.637 0.610715 278.18 0.961948 278.639 1.40849C279.098 1.85504 279.464 2.38807 279.716 2.97683C279.968 3.56559 280.101 4.19843 280.108 4.83886Z" fill="#5B6F8B"/>
<path d="M71.9341 149.823C70.3103 149.823 68.9573 148.538 68.9573 147.049V4.83897C68.9573 3.28278 70.3103 2.06494 71.9341 2.06494H275.169C276.793 2.06494 278.146 3.35038 278.146 4.83897V147.049C278.146 148.605 276.793 149.823 275.169 149.823H71.9341Z" fill="white"/>
<path d="M91.1482 108.486C93.6262 107.965 96.1956 108.076 98.6195 108.809C101.043 109.542 103.244 110.873 105.017 112.681C106.776 114.507 107.994 116.74 109.618 118.634C111.195 120.464 113.12 121.962 115.281 123.042C117.442 124.122 119.796 124.763 122.206 124.926C124.617 125.09 127.035 124.774 129.323 123.995C131.61 123.217 133.719 121.993 135.53 120.393C139.115 117.281 141.483 112.681 145.813 110.719C149.872 108.892 154.743 109.839 158.668 111.869C162.592 113.899 166.042 116.875 169.763 119.311C173.146 121.543 177.002 123.302 180.926 123.37V137.374H91.4862V108.418" fill="#C8E1FF"/>
<path d="M123.419 125.332C123.012 125.343 122.605 125.32 122.202 125.264C119.752 125.089 117.361 124.431 115.166 123.328C112.972 122.225 111.017 120.699 109.415 118.837C108.671 117.958 107.994 117.01 107.385 116.131C106.587 115.003 105.729 113.919 104.814 112.883C103.094 111.104 100.95 109.792 98.5828 109.07C96.2156 108.348 93.7037 108.24 91.2834 108.756L91.1482 108.08C93.689 107.528 96.3287 107.637 98.8158 108.395C101.303 109.153 103.554 110.535 105.356 112.41C106.309 113.454 107.19 114.562 107.994 115.725C108.611 116.649 109.289 117.53 110.024 118.363C111.57 120.151 113.454 121.615 115.569 122.672C117.683 123.729 119.985 124.357 122.343 124.52C124.701 124.684 127.068 124.379 129.308 123.625C131.548 122.87 133.616 121.68 135.394 120.122C136.654 118.943 137.829 117.677 138.912 116.334C140.874 114.034 142.904 111.666 145.745 110.38C149.399 108.689 154.202 109.095 158.938 111.53C161.509 112.816 163.877 114.575 166.177 116.199C167.463 117.146 168.748 118.093 170.102 118.972C174.161 121.611 177.746 122.897 181.129 122.964V123.64C177.679 123.64 173.957 122.287 169.763 119.581C168.41 118.702 167.125 117.754 165.839 116.808C163.606 115.184 161.239 113.425 158.735 112.207C154.202 109.907 149.602 109.501 146.151 111.124C143.513 112.342 141.551 114.575 139.589 116.875C138.439 118.16 137.289 119.581 136.003 120.731C132.35 123.64 127.952 125.332 123.419 125.332Z" fill="#4A5B6B"/>
<path opacity="0.5" d="M180.994 131.962V137.374H91.4866V121.611L91.6218 121.476C95.884 121.002 99.1992 117.551 101.161 113.763C103.056 109.974 103.935 105.712 105.423 101.72C107.994 94.8873 113.136 88.3925 120.24 86.9039C123.898 86.1477 127.706 86.7746 130.929 88.6632C136.612 91.9781 139.454 98.5408 141.416 104.765C143.378 110.989 144.934 117.687 149.128 122.693C152.849 127.091 158.262 129.729 163.81 131.015C169.492 132.233 175.243 132.233 180.994 131.962Z" fill="white"/>
<path d="M175.31 132.436C171.445 132.489 167.587 132.103 163.809 131.286C159.412 130.271 153.255 128.038 148.925 122.896C145.272 118.566 143.58 112.951 141.957 107.539C141.686 106.591 141.416 105.712 141.145 104.832C139.386 99.2172 136.612 92.3164 130.794 88.9336C127.623 87.1042 123.892 86.5023 120.307 87.2422C114.083 88.5277 108.671 94.0078 105.694 101.856C105.153 103.344 104.679 104.9 104.205 106.389C103.461 108.892 102.649 111.53 101.432 113.966C99.1314 118.499 95.4779 121.476 91.6216 121.882L91.554 121.205C95.1395 120.799 98.5899 117.958 100.822 113.695C102.04 111.328 102.785 108.756 103.596 106.253C104.07 104.765 104.544 103.209 105.085 101.72C108.129 93.6694 113.744 87.9865 120.172 86.6335C123.918 85.8773 127.811 86.5021 131.132 88.3925C137.153 91.9105 139.995 98.9467 141.754 104.697C142.024 105.577 142.295 106.524 142.566 107.471C144.189 112.816 145.813 118.296 149.398 122.558C153.593 127.564 159.615 129.797 163.877 130.744C169.492 132.03 175.378 131.962 180.858 131.691V132.368C179.167 132.368 177.272 132.436 175.31 132.436Z" fill="#4A5B6B"/>
<path d="M187.691 137.713H91.1482V78.3794H91.8245V136.968H187.691V137.713Z" fill="#4A5B6B"/>
<path d="M190.533 137.51L186.879 139.269C186.744 139.337 186.609 139.269 186.609 139.066V135.48C186.609 135.345 186.744 135.277 186.879 135.345L190.533 137.104C190.668 137.239 190.668 137.442 190.533 137.51V137.51ZM91.6893 77.4323L93.4483 81.0859C93.5159 81.2211 93.4483 81.3563 93.3131 81.3563H89.7275C89.5923 81.3563 89.5244 81.2211 89.5923 81.0859L91.351 77.4323C91.3673 77.4017 91.3917 77.376 91.4215 77.3581C91.4513 77.3403 91.4854 77.3308 91.5202 77.3308C91.5549 77.3308 91.589 77.3403 91.6188 77.3581C91.6486 77.376 91.673 77.4017 91.6893 77.4323ZM104.138 110.786C104.138 111.289 103.938 111.77 103.583 112.126C103.228 112.481 102.746 112.681 102.243 112.681C101.741 112.681 101.259 112.481 100.904 112.126C100.549 111.77 100.349 111.289 100.349 110.786C100.349 110.284 100.549 109.802 100.904 109.447C101.259 109.091 101.741 108.892 102.244 108.892C102.746 108.892 103.228 109.091 103.583 109.447C103.939 109.802 104.138 110.284 104.138 110.786H104.138ZM134.109 89.7456C134.089 90.1136 133.96 90.4673 133.739 90.7622C133.518 91.057 133.214 91.2796 132.866 91.4018C132.519 91.5241 132.143 91.5405 131.786 91.449C131.429 91.3575 131.107 91.1622 130.861 90.8878C130.615 90.6134 130.456 90.2722 130.404 89.9074C130.352 89.5425 130.409 89.1705 130.568 88.8382C130.728 88.5059 130.982 88.2283 131.299 88.0406C131.616 87.8528 131.982 87.7634 132.35 87.7835C132.595 87.7935 132.836 87.8526 133.058 87.9573C133.281 88.0621 133.48 88.2103 133.644 88.3932C133.808 88.5761 133.933 88.79 134.013 89.0223C134.093 89.2546 134.126 89.5005 134.109 89.7456ZM110.024 96.8495C109.988 97.3518 109.754 97.8193 109.373 98.1492C108.993 98.479 108.496 98.6442 107.994 98.6085C107.502 98.5775 107.042 98.3545 106.713 97.9874C106.384 97.6204 106.212 97.1388 106.235 96.6463C106.271 96.144 106.505 95.6765 106.886 95.3466C107.266 95.0168 107.762 94.8516 108.265 94.8874C108.512 94.892 108.756 94.9475 108.98 95.0505C109.205 95.1534 109.406 95.3015 109.571 95.4856C109.736 95.6697 109.862 95.8858 109.94 96.1204C110.017 96.3551 110.046 96.6033 110.024 96.8495ZM145.543 111.869C145.516 112.243 145.379 112.602 145.148 112.898C144.918 113.195 144.605 113.417 144.248 113.535C143.892 113.654 143.508 113.664 143.146 113.565C142.784 113.465 142.459 113.261 142.213 112.977C141.967 112.693 141.811 112.343 141.764 111.97C141.717 111.597 141.782 111.219 141.95 110.883C142.118 110.548 142.382 110.269 142.708 110.083C143.035 109.897 143.409 109.812 143.784 109.839C144.286 109.875 144.753 110.109 145.083 110.49C145.413 110.87 145.578 111.366 145.543 111.869ZM182.414 123.641C182.383 124.133 182.16 124.593 181.793 124.922C181.426 125.251 180.945 125.422 180.452 125.4C179.95 125.364 179.483 125.13 179.153 124.749C178.823 124.368 178.658 123.873 178.693 123.37C178.724 122.878 178.947 122.418 179.314 122.089C179.681 121.76 180.163 121.588 180.655 121.611C181.154 121.657 181.615 121.894 181.943 122.272C182.27 122.651 182.439 123.141 182.414 123.641ZM156.3 111.598C156.336 111.096 156.57 110.628 156.95 110.298C157.331 109.968 157.827 109.803 158.329 109.839C158.832 109.875 159.299 110.109 159.629 110.489C159.959 110.87 160.124 111.366 160.088 111.868C160.058 112.361 159.835 112.821 159.467 113.15C159.1 113.479 158.619 113.651 158.126 113.628C157.872 113.617 157.622 113.556 157.392 113.448C157.162 113.34 156.956 113.187 156.785 112.998C156.615 112.809 156.485 112.587 156.401 112.347C156.318 112.107 156.283 111.852 156.3 111.598ZM160.494 129.662C160.468 130.036 160.33 130.395 160.1 130.691C159.869 130.988 159.556 131.21 159.2 131.328C158.844 131.447 158.46 131.457 158.098 131.358C157.736 131.258 157.411 131.054 157.165 130.77C156.919 130.486 156.763 130.136 156.716 129.763C156.669 129.39 156.734 129.012 156.902 128.676C157.07 128.341 157.334 128.062 157.66 127.876C157.987 127.69 158.361 127.605 158.735 127.632C159.229 127.689 159.684 127.929 160.01 128.305C160.336 128.68 160.509 129.165 160.494 129.662ZM93.3807 121.746C93.3499 122.238 93.1269 122.698 92.7598 123.027C92.3928 123.357 91.9111 123.528 91.4186 123.505C90.9162 123.469 90.4487 123.235 90.1189 122.855C89.789 122.474 89.6238 121.978 89.6596 121.476C89.6905 120.984 89.9136 120.524 90.2806 120.195C90.6477 119.865 91.1293 119.694 91.6217 119.717C92.12 119.763 92.5811 120 92.9089 120.378C93.2366 120.756 93.4057 121.247 93.3807 121.746V121.746ZM93.3807 108.554C93.3606 108.922 93.2319 109.275 93.0107 109.57C92.7896 109.865 92.486 110.088 92.1383 110.21C91.7907 110.332 91.4145 110.349 91.0576 110.257C90.7006 110.166 90.3787 109.97 90.1327 109.696C89.8867 109.421 89.7276 109.08 89.6755 108.715C89.6234 108.351 89.6807 107.979 89.8401 107.646C89.9995 107.314 90.2538 107.036 90.5709 106.849C90.8881 106.661 91.2537 106.571 91.6217 106.592C91.8689 106.596 92.1125 106.652 92.3373 106.755C92.5621 106.858 92.7632 107.006 92.9283 107.19C93.0933 107.374 93.2186 107.59 93.2965 107.825C93.3743 108.059 93.403 108.307 93.3807 108.554Z" fill="#4A5B6B"/>
<path d="M238.771 108.08L258.458 127.767C263.122 122.347 265.647 115.411 265.56 108.261C265.473 101.111 262.779 94.2386 257.985 88.9336L238.771 108.08Z" fill="#FCC800"/>
<path d="M237.959 79.1912V103.412L255.143 86.2275C250.349 82.0494 244.307 79.5753 237.959 79.1912Z" fill="#464AE4"/>
<path d="M206.567 108.621C206.565 112.495 207.326 116.332 208.808 119.912C210.289 123.492 212.462 126.745 215.202 129.484C217.941 132.224 221.194 134.397 224.774 135.878C228.354 137.36 232.19 138.121 236.065 138.119C243.344 138.142 250.367 135.438 255.752 130.541L234.103 108.892V79.1912C226.63 79.6712 219.621 82.9828 214.504 88.451C209.388 93.9192 206.55 101.133 206.567 108.621Z" fill="#D9E9FD"/>
<path d="M137.491 45.2961H148.722C149.466 45.2961 150.143 45.8373 150.143 46.514V68.5017H136.071V46.514C136.128 46.1768 136.301 45.8702 136.56 45.6476C136.82 45.425 137.15 45.3007 137.491 45.2961Z" fill="#A3CAED"/>
<path d="M114.624 33.592H125.855C126.599 33.592 127.276 34.1332 127.276 34.8099V68.5697H113.203V34.8099C113.203 34.1332 113.812 33.592 114.624 33.592Z" fill="#464AE4"/>
<path d="M91.7568 16.1373H102.988C103.732 16.1373 104.408 16.6781 104.408 17.3548V68.5696H90.3362V17.3548C90.3362 16.6781 90.9449 16.137 91.7568 16.137V16.1373Z" fill="#FF9A05"/>
<path d="M155.42 69.4493C155.416 69.6813 155.322 69.9026 155.158 70.0667C154.994 70.2307 154.773 70.3247 154.541 70.3288H86.0064C85.7732 70.3288 85.5495 70.2362 85.3845 70.0712C85.2196 69.9063 85.127 69.6826 85.127 69.4493C85.127 69.2161 85.2196 68.9924 85.3845 68.8274C85.5495 68.6625 85.7732 68.5698 86.0064 68.5698H154.541C154.773 68.5739 154.994 68.6679 155.158 68.832C155.322 68.996 155.416 69.2173 155.42 69.4493Z" fill="#191937"/>
<path d="M95.2071 109.501C95.2071 109.501 76.1287 130.541 64.3566 129.526C52.5845 128.512 44.0603 106.727 44.0603 106.727L53.7351 105.847C53.7351 105.847 60.9738 118.499 66.7247 119.514C72.4755 120.529 93.5158 104.562 93.5837 104.156C93.5837 103.75 102.785 96.2402 103.191 102.871C103.529 109.501 95.2071 109.501 95.2071 109.501Z" fill="#FFD1C4"/>
<path d="M58.1327 111.057C58.2003 111.327 57.5236 111.733 56.441 112.207C53.8705 113.424 49.1346 114.845 48.9315 114.236C48.9315 114.236 47.3081 111.733 45.6843 108.621C43.2486 104.088 40.6777 98.3376 43.1134 97.864C46.8342 97.1197 56.7117 106.118 58.1327 111.057Z" fill="#FA5814"/>
<path d="M29.3793 258.206C29.3758 258.593 29.3305 258.979 29.2441 259.356C29.2038 259.525 29.1092 259.676 28.9747 259.786C28.8403 259.896 28.6734 259.959 28.4998 259.965H5.02352C4.94976 259.963 4.87734 259.945 4.81147 259.911C4.7456 259.878 4.68793 259.831 4.64263 259.772C4.59733 259.714 4.56552 259.647 4.54949 259.575C4.53347 259.503 4.53364 259.428 4.54998 259.356L5.42947 255.5L8.20315 243.796C8.24183 243.618 8.34814 243.462 8.49964 243.361C8.65113 243.26 8.83595 243.222 9.01504 243.254L17.066 244.134C17.2373 244.157 17.3962 244.236 17.5184 244.358C17.6406 244.48 17.7193 244.639 17.7424 244.81C17.8103 246.299 18.5543 250.155 24.4403 251.847C28.9733 253.064 29.5145 256.176 29.3793 258.206Z" fill="#292561"/>
<path d="M22.4108 251.035C18.3513 249.14 17.7425 246.028 17.6753 244.743C17.6749 244.563 17.6035 244.391 17.4767 244.265C17.3499 244.138 17.178 244.066 16.9986 244.066L8.94762 243.187C8.76969 243.164 8.58938 243.206 8.4401 243.305C8.29082 243.405 8.18268 243.555 8.13572 243.728L6.44434 251.035L22.4108 251.035Z" fill="#191937"/>
<path d="M57.7943 258.206C57.7909 258.593 57.7455 258.979 57.6591 259.356C57.6189 259.525 57.5242 259.676 57.3898 259.786C57.2553 259.896 57.0884 259.959 56.9148 259.965H33.3709C33.2972 259.963 33.2247 259.945 33.1589 259.911C33.093 259.878 33.0353 259.831 32.99 259.772C32.9447 259.714 32.9129 259.647 32.8969 259.575C32.8809 259.503 32.881 259.428 32.8974 259.356L33.7769 255.5L36.5506 243.796C36.5892 243.618 36.6956 243.462 36.8471 243.361C36.9985 243.26 37.1834 243.222 37.3625 243.254L45.4134 244.134C45.5848 244.157 45.7438 244.236 45.8661 244.358C45.9883 244.48 46.0671 244.639 46.0901 244.81C46.1577 246.299 46.902 250.155 52.7877 251.847C57.3207 253.064 57.8619 256.176 57.7943 258.206Z" fill="#292561"/>
<path d="M50.7584 251.035C46.6989 249.14 46.0902 246.028 46.0226 244.743C46.0222 244.563 45.9508 244.391 45.824 244.265C45.6971 244.138 45.5252 244.066 45.3459 244.066L37.2945 243.187C37.1166 243.164 36.9363 243.206 36.787 243.305C36.6377 243.405 36.5296 243.555 36.4827 243.728L34.7913 251.035L50.7584 251.035Z" fill="#191937"/>
<path d="M37.904 206.179C36.8889 216.734 33.8445 226.137 32.2883 232.768C31.4768 236.218 29.447 241.36 29.2439 246.907H57.05C58.0651 229.656 59.2826 165.722 55.9001 153.206L31.0708 153.747C33.1002 169.578 38.6483 198.331 37.904 206.179Z" fill="#2624BD"/>
<path d="M18.2164 147.049C17.9456 162.61 18.622 190.416 16.7278 197.722C14.1569 207.532 9.5563 215.651 7.25617 221.604C5.02364 227.423 1.16732 238.992 0.355425 245.825C0.32972 245.941 0.329123 246.062 0.353677 246.178C0.378232 246.295 0.427372 246.405 0.497817 246.501C0.568261 246.597 0.658389 246.677 0.762183 246.735C0.865977 246.794 0.981048 246.829 1.09972 246.84H27.6204C27.8138 246.828 27.9962 246.745 28.1332 246.608C28.2702 246.471 28.3524 246.289 28.3644 246.096C30.4617 233.715 44.4663 164.098 42.9777 151.379L18.2164 147.049Z" fill="#464AE4"/>
<path d="M2.72308 235.203H30.394C29.4469 240.21 28.7026 244.066 28.3643 246.231C28.3404 246.42 28.2544 246.596 28.1197 246.73C27.985 246.865 27.8093 246.951 27.6203 246.975H1.09964C0.981009 246.965 0.865973 246.929 0.762208 246.871C0.658442 246.812 0.568335 246.732 0.497896 246.636C0.427458 246.54 0.378309 246.43 0.353728 246.314C0.329147 246.197 0.3297 246.077 0.355349 245.961C0.693696 242.916 1.57319 239.06 2.72308 235.203V235.203Z" fill="#2624BD"/>
<path d="M55.9 153.273C55.9676 154.491 17.8104 153.95 17.7424 152.732C18.7575 143.463 17.8104 123.438 18.8251 110.583V110.177C19.2986 104.9 19.3662 100.164 21.2608 98.7435C25.0495 95.8343 40.8804 95.2255 45.8869 98.6759C47.5786 99.8258 49.0669 101.856 50.2844 104.359C51.5698 106.93 52.5849 110.042 53.3968 113.424C55.3589 121.543 56.1028 131.421 55.7645 139.268C55.6969 140.148 55.6969 141.028 55.6969 141.84C55.5617 148.132 55.9 153.273 55.9 153.273Z" fill="#FA5814"/>
<path d="M55.9 153.273C55.9676 154.491 17.7424 153.95 17.7424 152.732C18.7575 143.463 17.8104 123.438 18.8251 110.583C19.2168 110.533 19.6023 110.442 19.9753 110.312C22.9521 109.771 26.6729 108.892 29.5821 110.11C31.2948 110.879 32.7507 112.123 33.7768 113.695C35.5358 116.334 36.1445 119.514 36.4829 122.625C36.8212 125.737 36.9564 128.917 37.7683 131.962C38.5802 135.007 40.3392 137.915 43.0456 139.472C45.5486 140.825 48.593 140.892 51.435 141.095C52.8553 141.231 54.3435 141.366 55.6969 141.84C55.5617 148.132 55.9 153.273 55.9 153.273Z" fill="#E44000"/>
<path d="M76.2639 114.372L71.6636 136.36C71.6001 136.615 71.4516 136.841 71.2426 137.001C71.0336 137.161 70.7764 137.245 70.5134 137.239H53.8026C53.6332 137.241 53.4655 137.205 53.3114 137.135C53.1573 137.064 53.0205 136.961 52.9108 136.832C52.801 136.703 52.721 136.551 52.6764 136.388C52.6317 136.224 52.6235 136.053 52.6524 135.886L57.2527 113.898C57.3162 113.643 57.4646 113.417 57.6736 113.257C57.8827 113.097 58.1398 113.013 58.4029 113.019H75.1816C75.3458 113.025 75.5069 113.066 75.6536 113.141C75.8004 113.215 75.9295 113.319 76.0322 113.448C76.1349 113.576 76.2087 113.725 76.2487 113.885C76.2887 114.044 76.2938 114.21 76.2639 114.372Z" fill="#9859CD"/>
<path d="M69.2281 119.108C66.3188 113.154 57.7267 121.002 57.7267 121.002C57.7267 121.002 32.7622 128.444 29.3794 125.264C27.9584 123.979 28.7027 119.378 29.3794 116.334H18.69C16.9982 124.114 17.1338 133.924 21.8696 135.413C33.7769 139.201 60.9063 126.076 60.9063 126.076C60.9063 126.076 72.137 125.061 69.2281 119.108Z" fill="#FFD1C4"/>
<path d="M30.2588 121.611C30.2682 121.75 30.2489 121.889 30.2021 122.02C30.1553 122.151 30.0821 122.271 29.9868 122.373C29.8916 122.475 29.7765 122.555 29.6486 122.611C29.5208 122.666 29.383 122.694 29.2437 122.693L17.6748 123.235C17.4104 123.234 17.1551 123.138 16.9561 122.964C16.7571 122.79 16.6279 122.55 16.5925 122.287C16.4573 121.273 16.1865 119.378 16.0513 117.078C16.0623 116.873 16.0393 116.667 15.9834 116.469C15.8138 113.856 15.8138 111.234 15.9834 108.621C16.4573 100.638 21.8018 98.4053 21.8018 98.4053C26.8084 101.382 28.8378 109.771 29.6497 115.793C29.6497 115.995 29.7173 116.198 29.7173 116.401C30.0556 118.634 30.1912 120.528 30.2588 121.611Z" fill="#FA5814"/>
<path d="M39.4597 96.3079L39.5949 88.1893C39.5949 88.1893 46.2252 91.8429 48.0518 87.1747C49.608 83.1831 51.2994 66.6752 43.9251 65.0514C36.5508 63.4276 26.1993 75.4029 26.6056 78.6501C27.0788 81.8977 31.6794 85.6864 31.6794 85.6864L30.394 96.3083C30.1912 100.3 45.2781 101.112 39.4597 96.3083V96.3079Z" fill="#FFD1C4"/>
<path d="M31.4089 89.0692C31.4089 89.0692 20.1783 78.3794 25.0496 73.8467C24.5757 59.5717 48.8639 55.8505 53.3966 68.0282C55.9002 74.8614 49.473 75.8085 49.473 75.8085C47.0373 70.9378 36.0095 69.8552 34.8593 75.9437C34.1153 79.7327 33.1679 80.2063 32.2884 78.7853C31.1385 77.0263 28.0937 76.35 27.7557 78.7853C26.9438 83.7243 34.9948 84.1302 31.4089 89.0688V89.0692Z" fill="#191937"/>
<path d="M39.5951 92.0456L34.5212 85.8215C35.3331 86.4979 39.663 88.2572 39.663 88.2572L39.5951 92.0456Z" fill="#F1C0BA"/>
<path d="M56.5088 112.207C55.6293 112.613 54.5466 113.019 53.4643 113.424C52.7474 110.302 51.7043 107.264 50.3523 104.359C50.3523 104.359 54.4118 106.185 56.5088 112.207Z" fill="#E44000"/>
<path d="M195.742 26.1502V37.3129C195.74 37.6891 195.59 38.0492 195.324 38.3153C195.058 38.5813 194.698 38.7317 194.322 38.7339H183.159C182.782 38.7318 182.422 38.5815 182.156 38.3155C181.89 38.0495 181.74 37.6894 181.738 37.3132V26.1502C181.74 25.774 181.89 25.4138 182.156 25.1478C182.422 24.8817 182.782 24.7313 183.159 24.7292H194.321C194.697 24.7313 195.058 24.8816 195.324 25.1476C195.59 25.4137 195.74 25.774 195.743 26.1502H195.742Z" fill="#FF9A05"/>
<path d="M261.367 28.6532C261.366 28.9579 261.245 29.2496 261.029 29.4651C260.814 29.6805 260.522 29.8021 260.218 29.8035H202.643C202.341 29.7946 202.053 29.6706 201.84 29.4567C201.626 29.2429 201.502 28.9555 201.493 28.6532C201.494 28.3486 201.616 28.0569 201.831 27.8415C202.047 27.6262 202.339 27.5046 202.643 27.5034H260.218C260.372 27.4907 260.527 27.5117 260.672 27.565C260.817 27.6183 260.949 27.7026 261.059 27.812C261.168 27.9214 261.253 28.0533 261.306 28.1986C261.359 28.3439 261.38 28.499 261.367 28.6532ZM243.98 34.8776C243.979 35.1823 243.858 35.4741 243.642 35.6896C243.427 35.905 243.135 36.0266 242.83 36.0279H202.711C202.409 36.0189 202.121 35.8948 201.907 35.681C201.694 35.4672 201.57 35.1798 201.561 34.8776C201.562 34.573 201.684 34.2813 201.899 34.0658C202.114 33.8504 202.406 33.7288 202.711 33.7274H242.83C243.132 33.7363 243.42 33.8603 243.634 34.0741C243.847 34.288 243.971 34.5754 243.98 34.8776Z" fill="#E7F0FD"/>
<path d="M195.742 50.7763V61.9393C195.74 62.3154 195.59 62.6755 195.324 62.9414C195.058 63.2074 194.698 63.3578 194.322 63.3599H183.159C182.782 63.3579 182.422 63.2075 182.156 62.9415C181.89 62.6756 181.74 62.3155 181.738 61.9393V50.7763C181.74 50.4001 181.89 50.04 182.156 49.774C182.422 49.5081 182.782 49.3577 183.159 49.3557H194.321C194.509 49.351 194.696 49.3845 194.87 49.4543C195.045 49.524 195.203 49.6285 195.336 49.7613C195.469 49.8942 195.574 50.0526 195.644 50.2271C195.713 50.4016 195.747 50.5884 195.743 50.7763H195.742Z" fill="#464AE4"/>
<path d="M261.367 53.212C261.366 53.5166 261.245 53.8083 261.029 54.0236C260.814 54.239 260.522 54.3606 260.218 54.3619H202.643C202.341 54.353 202.054 54.2291 201.84 54.0153C201.626 53.8016 201.502 53.5142 201.493 53.212C201.494 52.9074 201.616 52.6156 201.831 52.4001C202.047 52.1847 202.338 52.0631 202.643 52.0618H260.218C260.369 52.0606 260.519 52.0895 260.659 52.1468C260.799 52.2042 260.927 52.2889 261.034 52.3959C261.141 52.503 261.225 52.6303 261.283 52.7704C261.34 52.9105 261.369 53.0607 261.367 53.212ZM243.98 59.5037C243.979 59.8084 243.858 60.1002 243.642 60.3156C243.427 60.5311 243.135 60.6527 242.83 60.6539H202.711C202.409 60.645 202.121 60.5209 201.907 60.3071C201.694 60.0933 201.57 59.8059 201.561 59.5037C201.562 59.1991 201.684 58.9075 201.899 58.6921C202.115 58.4768 202.406 58.3552 202.711 58.3538H242.83C242.982 58.3525 243.132 58.3814 243.272 58.4387C243.412 58.496 243.539 58.5807 243.646 58.6877C243.753 58.7947 243.838 58.922 243.895 59.0621C243.953 59.2022 243.982 59.3523 243.98 59.5037Z" fill="#E7F0FD"/>
<path d="M286.332 40.3576V70.261C286.334 70.4578 286.413 70.646 286.552 70.7851C286.691 70.9242 286.879 71.0032 287.076 71.005H293.774C293.901 71.0077 294.025 71.042 294.135 71.1046C294.245 71.1672 294.338 71.2562 294.405 71.3636C294.472 71.471 294.511 71.5934 294.519 71.7198C294.527 71.8462 294.504 71.9726 294.451 72.0876L292.692 75.9439C292.615 76.0835 292.587 76.2447 292.612 76.4019C292.637 76.5592 292.714 76.7035 292.831 76.8121C292.947 76.9208 293.097 76.9875 293.255 77.0018C293.414 77.0161 293.573 76.9771 293.707 76.891L304.666 71.1405C304.79 71.0656 304.929 71.0193 305.072 71.0053H334.367C334.564 71.0036 334.752 70.9247 334.892 70.7854C335.031 70.6462 335.11 70.4579 335.111 70.261V40.3576C335.11 40.1607 335.031 39.9724 334.892 39.8332C334.752 39.694 334.564 39.615 334.367 39.6133H287.076C286.879 39.6151 286.691 39.6941 286.552 39.8333C286.413 39.9725 286.334 40.1608 286.332 40.3576Z" fill="#C8E1FF"/>
<path d="M319.01 54.6327C318.915 55.1329 318.945 55.6486 319.095 56.1349C319.245 56.6212 319.512 57.0635 319.872 57.4235C320.232 57.7834 320.674 58.0501 321.161 58.2005C321.647 58.3508 322.162 58.3802 322.663 58.2862C323.259 58.1543 323.804 57.855 324.236 57.4235C324.667 56.9921 324.967 56.4463 325.098 55.8505C325.256 55.0444 325.089 54.2086 324.632 53.526C324.175 52.8433 323.466 52.3696 322.661 52.2085C321.855 52.0474 321.019 52.2121 320.334 52.6664C319.65 53.1208 319.174 53.8278 319.01 54.6327ZM307.643 54.6327C307.549 55.1329 307.579 55.6486 307.729 56.135C307.879 56.6213 308.146 57.0637 308.506 57.4236C308.866 57.7836 309.308 58.0503 309.795 58.2006C310.281 58.3509 310.797 58.3803 311.297 58.2862C311.893 58.1543 312.438 57.855 312.87 57.4235C313.301 56.9921 313.601 56.4463 313.733 55.8505C313.829 55.356 313.803 54.8455 313.658 54.363C313.513 53.8806 313.253 53.4406 312.9 53.0811C312.547 52.7216 312.112 52.4532 311.632 52.2992C311.153 52.1452 310.643 52.1101 310.147 52.197C309.538 52.3156 308.977 52.6092 308.532 53.0418C308.088 53.4744 307.779 54.0273 307.643 54.6327ZM296.345 54.6327C296.251 55.1329 296.28 55.6486 296.431 56.135C296.581 56.6213 296.848 57.0637 297.208 57.4236C297.568 57.7836 298.01 58.0503 298.496 58.2006C298.983 58.3509 299.498 58.3803 299.999 58.2862C300.594 58.1543 301.14 57.855 301.572 57.4235C302.003 56.992 302.302 56.4463 302.434 55.8505C302.53 55.356 302.505 54.8456 302.36 54.3631C302.215 53.8807 301.954 53.4408 301.602 53.0813C301.249 52.7217 300.814 52.4534 300.334 52.2994C299.855 52.1453 299.345 52.1102 298.848 52.197C298.23 52.2937 297.658 52.58 297.209 53.0163C296.761 53.4526 296.459 54.0174 296.345 54.6327Z" fill="white"/>
</g>
<defs>
<clipPath id="clip0_1_2484">
<rect width="347.013" height="260" fill="white"/>
</clipPath>
</defs>
</svg>
